<svg width="328" height="131" viewBox="0 0 328 131" fill="none" xmlns="http://www.w3.org/2000/svg">
<path d="M29.5258 130.233C25.362 130.027 21.2562 129.002 17.5435 127.242C13.8309 125.489 10.5179 123.014 7.81721 120.03C5.12298 117.046 3.04107 113.559 1.72618 109.839C0.398401 106.12 -0.155915 102.176 0.0374508 98.3213C0.243708 94.4668 1.20409 90.6833 2.84126 87.2672C4.47198 83.851 6.77304 80.8023 9.52528 78.3208C12.284 75.8457 15.5067 73.9507 18.9293 72.7518C22.3519 71.5465 25.9743 71.0502 29.5193 71.25C25.9743 71.4563 22.513 72.3586 19.3934 73.8733C16.2673 75.3816 13.4893 77.5022 11.2333 80.0353C8.98386 82.5748 7.2629 85.5269 6.18649 88.6594C5.10364 91.7919 4.67179 95.0921 4.86516 98.3213C5.07142 101.557 5.90934 104.696 7.30157 107.525C8.68736 110.355 10.6275 112.869 12.9414 114.899C15.2554 116.93 17.9432 118.47 20.7792 119.424C23.6152 120.384 26.5931 120.752 29.5193 120.558C32.1878 120.384 34.4953 122.402 34.6758 125.07C34.8498 127.739 32.8323 130.046 30.1639 130.227C29.977 130.24 29.7901 130.24 29.6096 130.233H29.5258Z" fill="black"/>
<path d="M118.475 66.4232C122.639 66.6294 126.745 67.6543 130.457 69.4139C134.17 71.1671 137.483 73.6422 140.183 76.6265C142.878 79.6107 144.96 83.0978 146.275 86.8169C147.602 90.5359 148.157 94.4806 147.963 98.335C147.757 102.189 146.797 105.973 145.159 109.389C143.529 112.805 141.228 115.854 138.475 118.336C135.717 120.811 132.494 122.706 129.071 123.904C125.649 125.11 122.026 125.606 118.481 125.406C122.026 125.2 125.488 124.298 128.607 122.783C131.733 121.275 134.511 119.154 136.767 116.621C139.017 114.081 140.738 111.129 141.814 107.997C142.897 104.864 143.329 101.564 143.136 98.335C142.929 95.0994 142.091 91.9604 140.699 89.1308C139.313 86.3012 137.373 83.7874 135.059 81.7571C132.745 79.7268 130.058 78.1863 127.222 77.2323C124.385 76.272 121.408 75.9046 118.481 76.0979C115.813 76.272 113.505 74.2545 113.325 71.586C113.151 68.9176 115.168 66.6101 117.837 66.4296C118.024 66.4167 118.211 66.4167 118.391 66.4232H118.475Z" fill="black"/>
<path d="M29.5258 120.565C33.2771 120.758 37.1573 120.12 40.9731 118.844C44.7953 117.574 48.5466 115.692 52.1754 113.481C59.4524 109.053 66.2396 103.4 72.9816 97.6767C79.7365 91.9466 86.427 85.978 93.762 80.77C97.4295 78.1853 101.284 75.7941 105.428 74.0086C109.554 72.2297 114.027 71.0953 118.474 71.2564C114.02 71.5078 109.792 73.0096 105.951 75.0979C102.096 77.1927 98.5833 79.8418 95.2381 82.6843C88.5605 88.4015 82.521 94.8664 76.2753 101.215C70.0296 107.571 63.6743 113.971 56.2297 119.501C52.5041 122.253 48.4886 124.78 44.0347 126.733C39.5937 128.686 34.6629 130.027 29.5258 130.233H29.4678C26.7993 130.343 24.5434 128.261 24.4338 125.592C24.3242 122.924 26.4062 120.668 29.0746 120.558C29.2229 120.552 29.3775 120.558 29.5258 120.565Z" fill="black"/>
<path d="M16.8418 52.944L17.1447 44.178C17.1512 43.9847 17.1512 43.8429 17.1705 43.5979L17.2221 42.8825C17.2672 42.4055 17.2801 41.935 17.3639 41.458C17.5315 40.5041 17.6991 39.5566 18.0213 38.6284C18.2792 37.6938 18.7046 36.8043 19.1106 35.9277L19.8261 34.6644C20.0581 34.239 20.3675 33.8716 20.6382 33.4784C21.7662 31.9508 23.0875 30.6166 24.5249 29.5467C25.9493 28.4574 27.4576 27.555 29.0045 26.846C29.7715 26.4592 30.5579 26.1821 31.3378 25.8598C32.1306 25.602 32.9105 25.3055 33.7098 25.1057L34.9022 24.7834L36.1011 24.5191C36.5071 24.4225 36.881 24.3644 37.2548 24.3L38.3763 24.1131C44.3514 23.1011 50.2877 22.579 56.2176 22.2696C62.1475 21.9667 68.0645 21.928 73.975 22.1085C79.8792 22.289 85.7768 22.6693 91.6487 23.3203C97.5142 23.9842 103.373 24.8801 109.129 26.4141C110.56 26.7944 112.01 27.2005 113.415 27.7484C114.827 28.2704 116.206 28.8957 117.528 29.624C120.164 31.0743 122.639 33.0079 124.34 35.5539C126.087 38.0677 126.809 41.2066 126.635 44.1522L126.332 52.9182L126.029 44.1522C126.023 43.7848 125.991 43.4239 125.958 43.0694C125.92 42.7149 125.913 42.3539 125.849 42.0059C125.707 41.3098 125.591 40.6072 125.34 39.9433C124.895 38.6091 124.244 37.3458 123.361 36.2565C121.646 34.0392 119.255 32.4149 116.703 31.2354C115.426 30.636 114.092 30.1461 112.732 29.7465C111.378 29.3211 109.986 29.031 108.568 28.7603C102.928 27.6646 97.1403 27.1811 91.3587 26.9298C85.5706 26.6913 79.776 26.7171 73.9879 26.9427C68.2063 27.1618 62.4311 27.6066 56.7139 28.2898C50.9967 28.9795 45.3182 29.8883 39.833 31.2096L38.8017 31.4545C38.4537 31.5383 38.1121 31.6157 37.8156 31.7124L36.8874 31.9831L35.9786 32.2989C35.3663 32.4923 34.7991 32.7694 34.2125 32.995C33.6582 33.2786 33.0781 33.5171 32.5625 33.8329C31.4861 34.413 30.5257 35.1092 29.6813 35.8568C28.8176 36.5916 28.1344 37.4295 27.593 38.2933C27.4705 38.5188 27.3029 38.7186 27.2127 38.9507C27.1095 39.1763 27.0064 39.4019 26.8904 39.621C26.7937 39.8466 26.7357 40.0851 26.6455 40.3172C26.5488 40.5428 26.5037 40.7812 26.4521 41.0262C26.3167 41.4902 26.291 41.9994 26.2265 42.4893C26.2007 42.7342 26.2265 42.9985 26.2136 43.2499L26.2072 43.6302C26.2007 43.7526 26.2201 43.9782 26.2201 44.1458L26.523 52.9117C26.6132 55.5802 24.5249 57.8232 21.8564 57.9135C19.188 58.0037 16.9449 55.9154 16.8547 53.2469C16.8418 53.1696 16.8418 53.0471 16.8418 52.944Z" fill="black"/>
<path d="M159.196 35.36C157.252 35.36 155.368 35.084 153.544 34.532C151.744 33.98 150.316 33.248 149.26 32.336L150.88 28.7C151.912 29.516 153.172 30.188 154.66 30.716C156.172 31.22 157.684 31.472 159.196 31.472C161.068 31.472 162.46 31.172 163.372 30.572C164.308 29.972 164.776 29.18 164.776 28.196C164.776 27.476 164.512 26.888 163.984 26.432C163.48 25.952 162.832 25.58 162.04 25.316C161.248 25.052 160.168 24.752 158.8 24.416C156.88 23.96 155.32 23.504 154.12 23.048C152.944 22.592 151.924 21.884 151.06 20.924C150.22 19.94 149.8 18.62 149.8 16.964C149.8 15.572 150.172 14.312 150.916 13.184C151.684 12.032 152.824 11.12 154.336 10.448C155.872 9.776 157.744 9.44 159.952 9.44C161.488 9.44 163 9.632 164.488 10.016C165.976 10.4 167.26 10.952 168.34 11.672L166.864 15.308C165.76 14.66 164.608 14.168 163.408 13.832C162.208 13.496 161.044 13.328 159.916 13.328C158.068 13.328 156.688 13.64 155.776 14.264C154.888 14.888 154.444 15.716 154.444 16.748C154.444 17.468 154.696 18.056 155.2 18.512C155.728 18.968 156.388 19.328 157.18 19.592C157.972 19.856 159.052 20.156 160.42 20.492C162.292 20.924 163.828 21.38 165.028 21.86C166.228 22.316 167.248 23.024 168.088 23.984C168.952 24.944 169.384 26.24 169.384 27.872C169.384 29.264 169 30.524 168.232 31.652C167.488 32.78 166.348 33.68 164.812 34.352C163.276 35.024 161.404 35.36 159.196 35.36ZM182.233 35.252C180.289 35.252 178.537 34.832 176.977 33.992C175.417 33.152 174.193 31.988 173.305 30.5C172.441 28.988 172.009 27.284 172.009 25.388C172.009 23.492 172.441 21.8 173.305 20.312C174.193 18.824 175.417 17.66 176.977 16.82C178.537 15.98 180.289 15.56 182.233 15.56C184.201 15.56 185.965 15.98 187.525 16.82C189.085 17.66 190.297 18.824 191.161 20.312C192.049 21.8 192.493 23.492 192.493 25.388C192.493 27.284 192.049 28.988 191.161 30.5C190.297 31.988 189.085 33.152 187.525 33.992C185.965 34.832 184.201 35.252 182.233 35.252ZM182.233 31.4C183.889 31.4 185.257 30.848 186.337 29.744C187.417 28.64 187.957 27.188 187.957 25.388C187.957 23.588 187.417 22.136 186.337 21.032C185.257 19.928 183.889 19.376 182.233 19.376C180.577 19.376 179.209 19.928 178.129 21.032C177.073 22.136 176.545 23.588 176.545 25.388C176.545 27.188 177.073 28.64 178.129 29.744C179.209 30.848 180.577 31.4 182.233 31.4ZM204.032 11.672C202.136 11.672 201.188 12.704 201.188 14.768V15.92H206.48V19.52H201.296V35H196.796V14.696C196.796 12.656 197.396 11.036 198.596 9.836C199.796 8.636 201.5 8.036 203.708 8.036C205.412 8.036 206.756 8.384 207.74 9.08L206.48 12.464C205.76 11.936 204.944 11.672 204.032 11.672ZM227.998 15.776V35H223.714V32.516C222.97 33.428 222.046 34.112 220.942 34.568C219.862 35.024 218.662 35.252 217.342 35.252C215.47 35.252 213.79 34.844 212.302 34.028C210.838 33.212 209.686 32.06 208.846 30.572C208.03 29.084 207.622 27.356 207.622 25.388C207.622 23.42 208.03 21.704 208.846 20.24C209.686 18.752 210.838 17.6 212.302 16.784C213.79 15.968 215.47 15.56 217.342 15.56C218.59 15.56 219.73 15.776 220.762 16.208C221.818 16.64 222.73 17.276 223.498 18.116V15.776H227.998ZM217.846 31.4C219.502 31.4 220.87 30.848 221.95 29.744C223.03 28.64 223.57 27.188 223.57 25.388C223.57 23.588 223.03 22.136 221.95 21.032C220.87 19.928 219.502 19.376 217.846 19.376C216.19 19.376 214.822 19.928 213.742 21.032C212.686 22.136 212.158 23.588 212.158 25.388C212.158 27.188 212.686 28.64 213.742 29.744C214.822 30.848 216.19 31.4 217.846 31.4ZM241.708 35.36C239.764 35.36 237.88 35.084 236.056 34.532C234.256 33.98 232.828 33.248 231.772 32.336L233.392 28.7C234.424 29.516 235.684 30.188 237.172 30.716C238.684 31.22 240.196 31.472 241.708 31.472C243.58 31.472 244.972 31.172 245.884 30.572C246.82 29.972 247.288 29.18 247.288 28.196C247.288 27.476 247.024 26.888 246.496 26.432C245.992 25.952 245.344 25.58 244.552 25.316C243.76 25.052 242.68 24.752 241.312 24.416C239.392 23.96 237.832 23.504 236.632 23.048C235.456 22.592 234.436 21.884 233.572 20.924C232.732 19.94 232.312 18.62 232.312 16.964C232.312 15.572 232.684 14.312 233.428 13.184C234.196 12.032 235.336 11.12 236.848 10.448C238.384 9.776 240.256 9.44 242.464 9.44C244 9.44 245.512 9.632 247 10.016C248.488 10.4 249.772 10.952 250.852 11.672L249.376 15.308C248.272 14.66 247.12 14.168 245.92 13.832C244.72 13.496 243.556 13.328 242.428 13.328C240.58 13.328 239.2 13.64 238.288 14.264C237.4 14.888 236.956 15.716 236.956 16.748C236.956 17.468 237.208 18.056 237.712 18.512C238.24 18.968 238.9 19.328 239.692 19.592C240.484 19.856 241.564 20.156 242.932 20.492C244.804 20.924 246.34 21.38 247.54 21.86C248.74 22.316 249.76 23.024 250.6 23.984C251.464 24.944 251.896 26.24 251.896 27.872C251.896 29.264 251.512 30.524 250.744 31.652C250 32.78 248.86 33.68 247.324 34.352C245.788 35.024 243.916 35.36 241.708 35.36ZM267.012 15.56C269.436 15.56 271.38 16.268 272.844 17.684C274.308 19.1 275.04 21.2 275.04 23.984V35H270.54V24.56C270.54 22.88 270.144 21.62 269.352 20.78C268.56 19.916 267.432 19.484 265.968 19.484C264.312 19.484 263.004 19.988 262.044 20.996C261.084 21.98 260.604 23.408 260.604 25.28V35H256.104V15.776H260.388V18.26C261.132 17.372 262.068 16.7 263.196 16.244C264.324 15.788 265.596 15.56 267.012 15.56ZM299.717 15.776V35H295.433V32.516C294.689 33.428 293.765 34.112 292.661 34.568C291.581 35.024 290.381 35.252 289.061 35.252C287.189 35.252 285.509 34.844 284.021 34.028C282.557 33.212 281.405 32.06 280.565 30.572C279.749 29.084 279.341 27.356 279.341 25.388C279.341 23.42 279.749 21.704 280.565 20.24C281.405 18.752 282.557 17.6 284.021 16.784C285.509 15.968 287.189 15.56 289.061 15.56C290.309 15.56 291.449 15.776 292.481 16.208C293.537 16.64 294.449 17.276 295.217 18.116V15.776H299.717ZM289.565 31.4C291.221 31.4 292.589 30.848 293.669 29.744C294.749 28.64 295.289 27.188 295.289 25.388C295.289 23.588 294.749 22.136 293.669 21.032C292.589 19.928 291.221 19.376 289.565 19.376C287.909 19.376 286.541 19.928 285.461 21.032C284.405 22.136 283.877 23.588 283.877 25.388C283.877 27.188 284.405 28.64 285.461 29.744C286.541 30.848 287.909 31.4 289.565 31.4ZM316.26 15.56C318.132 15.56 319.8 15.968 321.264 16.784C322.752 17.6 323.916 18.752 324.756 20.24C325.596 21.728 326.016 23.444 326.016 25.388C326.016 27.332 325.596 29.06 324.756 30.572C323.916 32.06 322.752 33.212 321.264 34.028C319.8 34.844 318.132 35.252 316.26 35.252C313.668 35.252 311.616 34.388 310.104 32.66V41.984H305.604V15.776H309.888V18.296C310.632 17.384 311.544 16.7 312.624 16.244C313.728 15.788 314.94 15.56 316.26 15.56ZM315.756 31.4C317.412 31.4 318.768 30.848 319.824 29.744C320.904 28.64 321.444 27.188 321.444 25.388C321.444 23.588 320.904 22.136 319.824 21.032C318.768 19.928 317.412 19.376 315.756 19.376C314.676 19.376 313.704 19.628 312.84 20.132C311.976 20.612 311.292 21.308 310.788 22.22C310.284 23.132 310.032 24.188 310.032 25.388C310.032 26.588 310.284 27.644 310.788 28.556C311.292 29.468 311.976 30.176 312.84 30.68C313.704 31.16 314.676 31.4 315.756 31.4Z" fill="black"/>
</svg>
