<svg width="68" height="69" viewBox="0 0 68 69" fill="none" xmlns="http://www.w3.org/2000/svg">
<path d="M13.5658 49.7254C11.6527 49.6307 9.7663 49.1598 8.0605 48.3513C6.35471 47.5458 4.83252 46.4086 3.59168 45.0375C2.35379 43.6663 1.39724 42.0642 0.793107 40.3554C0.183048 38.6467 -0.0716364 36.8342 0.017207 35.0633C0.111973 33.2924 0.553229 31.554 1.30544 29.9844C2.05468 28.4148 3.11192 27.0141 4.37646 25.8739C5.64396 24.7367 7.12469 23.8661 8.69721 23.3152C10.2697 22.7614 11.9341 22.5334 13.5629 22.6252C11.9341 22.72 10.3438 23.1346 8.91044 23.8305C7.47414 24.5235 6.19775 25.4978 5.16124 26.6617C4.1277 27.8285 3.33699 29.1848 2.84243 30.6241C2.34491 32.0634 2.14649 33.5796 2.23533 35.0633C2.3301 36.5499 2.71509 37.9922 3.35476 39.2922C3.99147 40.5923 4.88287 41.7473 5.94603 42.6801C7.00919 43.613 8.24411 44.3208 9.54715 44.7591C10.8502 45.2003 12.2184 45.3691 13.5629 45.2803C14.7889 45.2003 15.8491 46.1273 15.932 47.3533C16.012 48.5794 15.0851 49.6396 13.859 49.7225C13.7731 49.7284 13.6873 49.7284 13.6043 49.7254H13.5658Z" fill="black"/>
<path d="M54.4345 20.4082C56.3476 20.503 58.234 20.9738 59.9398 21.7823C61.6456 22.5878 63.1678 23.725 64.4086 25.0962C65.6465 26.4673 66.6031 28.0695 67.2072 29.7782C67.8173 31.487 68.072 33.2994 67.9831 35.0703C67.8883 36.8413 67.4471 38.5796 66.6949 40.1492C65.9456 41.7188 64.8884 43.1195 63.6239 44.2597C62.3564 45.3969 60.8756 46.2676 59.3031 46.8184C57.7306 47.3722 56.0662 47.6002 54.4374 47.5084C56.0662 47.4136 57.6565 46.999 59.0899 46.3031C60.5262 45.6101 61.8026 44.6358 62.8391 43.472C63.8726 42.3051 64.6633 40.9488 65.1579 39.5095C65.6554 38.0703 65.8538 36.554 65.765 35.0703C65.6702 33.5837 65.2852 32.1415 64.6456 30.8414C64.0088 29.5413 63.1175 28.3863 62.0543 27.4535C60.9911 26.5206 59.7562 25.8128 58.4532 25.3745C57.1501 24.9333 55.7819 24.7645 54.4374 24.8533C53.2114 24.9333 52.1512 24.0064 52.0683 22.7803C51.9883 21.5543 52.9153 20.4941 54.1413 20.4112C54.2272 20.4052 54.3131 20.4052 54.396 20.4082H54.4345Z" fill="black"/>
<path d="M13.5661 45.2871C15.2896 45.3759 17.0724 45.0827 18.8256 44.4964C20.5817 43.9129 22.3053 43.0482 23.9726 42.0324C27.3161 39.9979 30.4345 37.4007 33.5321 34.771C36.6357 32.1382 39.7097 29.3959 43.0799 27.0031C44.7649 25.8155 46.5359 24.7168 48.4401 23.8965C50.3354 23.0792 52.3907 22.5579 54.4341 22.632C52.3877 22.7475 50.445 23.4375 48.68 24.397C46.909 25.3595 45.295 26.5766 43.758 27.8826C40.69 30.5094 37.9151 33.4798 35.0454 36.3968C32.1758 39.3168 29.2558 42.2575 25.8353 44.7984C24.1236 46.063 22.2786 47.2238 20.2323 48.1212C18.1918 49.0185 15.9263 49.6345 13.5661 49.7292H13.5394C12.3134 49.7796 11.2769 48.823 11.2265 47.597C11.1762 46.371 12.1327 45.3344 13.3588 45.2841C13.4269 45.2811 13.4979 45.2841 13.5661 45.2871Z" fill="black"/>
<path d="M7.73828 14.2174L7.87747 10.1899C7.88043 10.101 7.88043 10.0359 7.88932 9.92333L7.91301 9.5946C7.93374 9.37546 7.93966 9.15927 7.97816 8.94012C8.05516 8.50183 8.13215 8.06649 8.28023 7.64004C8.39868 7.21063 8.59414 6.80196 8.78071 6.39921L9.10943 5.81876C9.21604 5.6233 9.35819 5.4545 9.48257 5.27385C10.0008 4.57199 10.6079 3.95897 11.2683 3.46737C11.9228 2.96688 12.6158 2.55228 13.3265 2.22652C13.6789 2.04883 14.0402 1.92149 14.3986 1.77342C14.7628 1.65496 15.1212 1.51873 15.4884 1.42693L16.0363 1.27886L16.5871 1.15744C16.7737 1.11302 16.9454 1.08636 17.1172 1.05675L17.6325 0.970864C20.3777 0.505917 23.1052 0.266039 25.8298 0.12389C28.5543 -0.0152986 31.2729 -0.0330673 33.9886 0.0498533C36.7013 0.132774 39.411 0.307501 42.1089 0.606607C44.8038 0.911636 47.4957 1.32328 50.1403 2.0281C50.7978 2.20283 51.4641 2.3894 52.1097 2.64112C52.7582 2.881 53.392 3.16826 53.9991 3.5029C55.2103 4.16923 56.3475 5.05766 57.1293 6.22744C57.9319 7.3824 58.2636 8.82463 58.1836 10.178L58.0444 14.2056L57.9052 10.178C57.9023 10.0092 57.8875 9.84337 57.8727 9.68049C57.8549 9.51761 57.8519 9.35177 57.8223 9.19185C57.7572 8.87201 57.7038 8.54921 57.5884 8.24418C57.384 7.63116 57.0849 7.05072 56.6792 6.55023C55.8914 5.53149 54.7927 4.78521 53.62 4.24327C53.0336 3.96785 52.4206 3.74278 51.7958 3.55917C51.1739 3.36372 50.5342 3.23045 49.8827 3.10607C47.2914 2.60262 44.632 2.38052 41.9756 2.26502C39.3162 2.15545 36.6539 2.16729 33.9945 2.27094C31.3381 2.37163 28.6846 2.57597 26.0578 2.88989C23.431 3.20676 20.822 3.62433 18.3018 4.23142L17.8279 4.34395C17.668 4.38245 17.5111 4.41799 17.3748 4.46242L16.9484 4.5868L16.5308 4.7319C16.2495 4.82075 15.9889 4.94809 15.7194 5.05174C15.4647 5.18204 15.1982 5.29162 14.9613 5.43673C14.4667 5.70326 14.0254 6.0231 13.6375 6.36662C13.2407 6.70423 12.9267 7.08922 12.678 7.48605C12.6217 7.5897 12.5447 7.6815 12.5033 7.78812C12.4559 7.89177 12.4085 7.99542 12.3552 8.09611C12.3108 8.19976 12.2841 8.30934 12.2426 8.41595C12.1982 8.5196 12.1775 8.62917 12.1538 8.7417C12.0916 8.95493 12.0798 9.18889 12.0502 9.41396C12.0383 9.52649 12.0502 9.64791 12.0442 9.76341L12.0413 9.93813C12.0383 9.9944 12.0472 10.0981 12.0472 10.1751L12.1864 14.2026C12.2278 15.4287 11.2683 16.4592 10.0423 16.5007C8.81625 16.5422 7.78566 15.5827 7.7442 14.3566C7.73828 14.3211 7.73828 14.2648 7.73828 14.2174Z" fill="black"/>
<path d="M7.732 65.8505C7.084 65.8505 6.456 65.7585 5.848 65.5745C5.248 65.3905 4.772 65.1465 4.42 64.8425L4.96 63.6305C5.304 63.9025 5.724 64.1265 6.22 64.3025C6.724 64.4705 7.228 64.5545 7.732 64.5545C8.356 64.5545 8.82 64.4545 9.124 64.2545C9.436 64.0545 9.592 63.7905 9.592 63.4625C9.592 63.2225 9.504 63.0265 9.328 62.8745C9.16 62.7145 8.944 62.5905 8.68 62.5025C8.416 62.4145 8.056 62.3145 7.6 62.2025C6.96 62.0505 6.44 61.8985 6.04 61.7465C5.648 61.5945 5.308 61.3585 5.02 61.0385C4.74 60.7105 4.6 60.2705 4.6 59.7185C4.6 59.2545 4.724 58.8345 4.972 58.4585C5.228 58.0745 5.608 57.7705 6.112 57.5465C6.624 57.3225 7.248 57.2105 7.984 57.2105C8.496 57.2105 9 57.2745 9.496 57.4025C9.992 57.5305 10.42 57.7145 10.78 57.9545L10.288 59.1665C9.92 58.9505 9.536 58.7865 9.136 58.6745C8.736 58.5625 8.348 58.5065 7.972 58.5065C7.356 58.5065 6.896 58.6105 6.592 58.8185C6.296 59.0265 6.148 59.3025 6.148 59.6465C6.148 59.8865 6.232 60.0825 6.4 60.2345C6.576 60.3865 6.796 60.5065 7.06 60.5945C7.324 60.6825 7.684 60.7825 8.14 60.8945C8.764 61.0385 9.276 61.1905 9.676 61.3505C10.076 61.5025 10.416 61.7385 10.696 62.0585C10.984 62.3785 11.128 62.8105 11.128 63.3545C11.128 63.8185 11 64.2385 10.744 64.6145C10.496 64.9905 10.116 65.2905 9.604 65.5145C9.092 65.7385 8.468 65.8505 7.732 65.8505ZM15.4109 65.8145C14.7629 65.8145 14.1789 65.6745 13.6589 65.3945C13.1389 65.1145 12.7309 64.7265 12.4349 64.2305C12.1469 63.7265 12.0029 63.1585 12.0029 62.5265C12.0029 61.8945 12.1469 61.3305 12.4349 60.8345C12.7309 60.3385 13.1389 59.9505 13.6589 59.6705C14.1789 59.3905 14.7629 59.2505 15.4109 59.2505C16.0669 59.2505 16.6549 59.3905 17.1749 59.6705C17.6949 59.9505 18.0989 60.3385 18.3869 60.8345C18.6829 61.3305 18.8309 61.8945 18.8309 62.5265C18.8309 63.1585 18.6829 63.7265 18.3869 64.2305C18.0989 64.7265 17.6949 65.1145 17.1749 65.3945C16.6549 65.6745 16.0669 65.8145 15.4109 65.8145ZM15.4109 64.5305C15.9629 64.5305 16.4189 64.3465 16.7789 63.9785C17.1389 63.6105 17.3189 63.1265 17.3189 62.5265C17.3189 61.9265 17.1389 61.4425 16.7789 61.0745C16.4189 60.7065 15.9629 60.5225 15.4109 60.5225C14.8589 60.5225 14.4029 60.7065 14.0429 61.0745C13.6909 61.4425 13.5149 61.9265 13.5149 62.5265C13.5149 63.1265 13.6909 63.6105 14.0429 63.9785C14.4029 64.3465 14.8589 64.5305 15.4109 64.5305ZM22.6773 57.9545C22.0453 57.9545 21.7293 58.2985 21.7293 58.9865V59.3705H23.4933V60.5705H21.7653V65.7305H20.2653V58.9625C20.2653 58.2825 20.4653 57.7425 20.8652 57.3425C21.2653 56.9425 21.8333 56.7425 22.5693 56.7425C23.1373 56.7425 23.5853 56.8585 23.9133 57.0905L23.4933 58.2185C23.2533 58.0425 22.9813 57.9545 22.6773 57.9545ZM30.666 59.3225V65.7305H29.238V64.9025C28.99 65.2065 28.682 65.4345 28.314 65.5865C27.954 65.7385 27.554 65.8145 27.114 65.8145C26.49 65.8145 25.93 65.6785 25.434 65.4065C24.946 65.1345 24.562 64.7505 24.282 64.2545C24.01 63.7585 23.874 63.1825 23.874 62.5265C23.874 61.8705 24.01 61.2985 24.282 60.8105C24.562 60.3145 24.946 59.9305 25.434 59.6585C25.93 59.3865 26.49 59.2505 27.114 59.2505C27.53 59.2505 27.91 59.3225 28.254 59.4665C28.606 59.6105 28.91 59.8225 29.166 60.1025V59.3225H30.666ZM27.282 64.5305C27.834 64.5305 28.29 64.3465 28.65 63.9785C29.01 63.6105 29.19 63.1265 29.19 62.5265C29.19 61.9265 29.01 61.4425 28.65 61.0745C28.29 60.7065 27.834 60.5225 27.282 60.5225C26.73 60.5225 26.274 60.7065 25.914 61.0745C25.562 61.4425 25.386 61.9265 25.386 62.5265C25.386 63.1265 25.562 63.6105 25.914 63.9785C26.274 64.3465 26.73 64.5305 27.282 64.5305ZM35.2359 65.8505C34.5879 65.8505 33.9599 65.7585 33.3519 65.5745C32.7519 65.3905 32.2759 65.1465 31.9239 64.8425L32.4639 63.6305C32.8079 63.9025 33.2279 64.1265 33.7239 64.3025C34.2279 64.4705 34.7319 64.5545 35.2359 64.5545C35.8599 64.5545 36.3239 64.4545 36.6279 64.2545C36.9399 64.0545 37.0959 63.7905 37.0959 63.4625C37.0959 63.2225 37.0079 63.0265 36.8319 62.8745C36.6639 62.7145 36.4479 62.5905 36.1839 62.5025C35.9199 62.4145 35.5599 62.3145 35.1039 62.2025C34.4639 62.0505 33.9439 61.8985 33.5439 61.7465C33.1519 61.5945 32.8119 61.3585 32.5239 61.0385C32.2439 60.7105 32.1039 60.2705 32.1039 59.7185C32.1039 59.2545 32.2279 58.8345 32.4759 58.4585C32.7319 58.0745 33.1119 57.7705 33.6159 57.5465C34.1279 57.3225 34.7519 57.2105 35.4879 57.2105C35.9999 57.2105 36.5039 57.2745 36.9999 57.4025C37.4959 57.5305 37.9239 57.7145 38.2839 57.9545L37.7919 59.1665C37.4239 58.9505 37.0399 58.7865 36.6399 58.6745C36.2399 58.5625 35.8519 58.5065 35.4759 58.5065C34.8599 58.5065 34.3999 58.6105 34.0959 58.8185C33.7999 59.0265 33.6519 59.3025 33.6519 59.6465C33.6519 59.8865 33.7359 60.0825 33.9039 60.2345C34.0799 60.3865 34.2999 60.5065 34.5639 60.5945C34.8279 60.6825 35.1879 60.7825 35.6439 60.8945C36.2679 61.0385 36.7799 61.1905 37.1799 61.3505C37.5799 61.5025 37.9199 61.7385 38.1999 62.0585C38.4879 62.3785 38.6319 62.8105 38.6319 63.3545C38.6319 63.8185 38.5039 64.2385 38.2479 64.6145C37.9999 64.9905 37.6199 65.2905 37.1079 65.5145C36.5959 65.7385 35.9719 65.8505 35.2359 65.8505ZM43.6708 59.2505C44.4788 59.2505 45.1268 59.4865 45.6148 59.9585C46.1028 60.4305 46.3468 61.1305 46.3468 62.0585V65.7305H44.8468V62.2505C44.8468 61.6905 44.7148 61.2705 44.4508 60.9905C44.1868 60.7025 43.8108 60.5585 43.3228 60.5585C42.7708 60.5585 42.3348 60.7265 42.0148 61.0625C41.6948 61.3905 41.5348 61.8665 41.5348 62.4905V65.7305H40.0348V59.3225H41.4628V60.1505C41.7108 59.8545 42.0228 59.6305 42.3988 59.4785C42.7748 59.3265 43.1988 59.2505 43.6708 59.2505ZM54.5722 59.3225V65.7305H53.1442V64.9025C52.8962 65.2065 52.5882 65.4345 52.2202 65.5865C51.8602 65.7385 51.4602 65.8145 51.0202 65.8145C50.3962 65.8145 49.8362 65.6785 49.3402 65.4065C48.8522 65.1345 48.4682 64.7505 48.1882 64.2545C47.9162 63.7585 47.7802 63.1825 47.7802 62.5265C47.7802 61.8705 47.9162 61.2985 48.1882 60.8105C48.4682 60.3145 48.8522 59.9305 49.3402 59.6585C49.8362 59.3865 50.3962 59.2505 51.0202 59.2505C51.4362 59.2505 51.8162 59.3225 52.1602 59.4665C52.5122 59.6105 52.8162 59.8225 53.0722 60.1025V59.3225H54.5722ZM51.1882 64.5305C51.7402 64.5305 52.1962 64.3465 52.5562 63.9785C52.9162 63.6105 53.0962 63.1265 53.0962 62.5265C53.0962 61.9265 52.9162 61.4425 52.5562 61.0745C52.1962 60.7065 51.7402 60.5225 51.1882 60.5225C50.6362 60.5225 50.1802 60.7065 49.8202 61.0745C49.4682 61.4425 49.2922 61.9265 49.2922 62.5265C49.2922 63.1265 49.4682 63.6105 49.8202 63.9785C50.1802 64.3465 50.6362 64.5305 51.1882 64.5305ZM60.0868 59.2505C60.7108 59.2505 61.2668 59.3865 61.7548 59.6585C62.2508 59.9305 62.6388 60.3145 62.9188 60.8105C63.1988 61.3065 63.3388 61.8785 63.3388 62.5265C63.3388 63.1745 63.1988 63.7505 62.9188 64.2545C62.6388 64.7505 62.2508 65.1345 61.7548 65.4065C61.2668 65.6785 60.7108 65.8145 60.0868 65.8145C59.2228 65.8145 58.5388 65.5265 58.0348 64.9505V68.0585H56.5348V59.3225H57.9628V60.1625C58.2108 59.8585 58.5148 59.6305 58.8748 59.4785C59.2428 59.3265 59.6468 59.2505 60.0868 59.2505ZM59.9188 64.5305C60.4708 64.5305 60.9228 64.3465 61.2748 63.9785C61.6348 63.6105 61.8148 63.1265 61.8148 62.5265C61.8148 61.9265 61.6348 61.4425 61.2748 61.0745C60.9228 60.7065 60.4708 60.5225 59.9188 60.5225C59.5588 60.5225 59.2348 60.6065 58.9468 60.7745C58.6588 60.9345 58.4308 61.1665 58.2628 61.4705C58.0948 61.7745 58.0108 62.1265 58.0108 62.5265C58.0108 62.9265 58.0948 63.2785 58.2628 63.5825C58.4308 63.8865 58.6588 64.1225 58.9468 64.2905C59.2348 64.4505 59.5588 64.5305 59.9188 64.5305Z" fill="black"/>
</svg>
