<svg width="118" height="115" viewBox="0 0 118 115" fill="none" xmlns="http://www.w3.org/2000/svg">
<path d="M23.5406 86.2835C20.2208 86.119 16.9473 85.3019 13.9872 83.899C11.0272 82.5012 8.38579 80.5278 6.23257 78.1485C4.08449 75.7692 2.42461 72.989 1.37626 70.0238C0.317641 67.0586 -0.124309 63.9136 0.0298591 60.8405C0.194305 57.7674 0.960009 54.7509 2.2653 52.0272C3.56546 49.3036 5.40006 46.8728 7.59439 44.8944C9.79387 42.921 12.3633 41.4101 15.0921 40.4543C17.8209 39.4933 20.709 39.0976 23.5354 39.2569C20.709 39.4214 17.9494 40.1408 15.4621 41.3485C12.9697 42.551 10.7548 44.2417 8.95621 46.2613C7.16272 48.2861 5.79062 50.6397 4.93242 53.1372C4.06907 55.6348 3.72476 58.2659 3.87893 60.8405C4.04338 63.4203 4.71144 65.9229 5.82146 68.1789C6.92633 70.4349 8.47316 72.4391 10.318 74.0579C12.1629 75.6767 14.3059 76.9049 16.567 77.6654C18.8281 78.4311 21.2023 78.7241 23.5354 78.5699C25.6629 78.4311 27.5027 80.0396 27.6466 82.1672C27.7853 84.2947 26.1768 86.1344 24.0493 86.2783C23.9003 86.2886 23.7513 86.2886 23.6074 86.2835H23.5406Z" fill="#FBFBFB"/>
<path d="M94.4591 35.4116C97.7789 35.576 101.052 36.3931 104.012 37.796C106.972 39.1938 109.614 41.1672 111.767 43.5465C113.915 45.9259 115.575 48.706 116.623 51.6712C117.682 54.6364 118.124 57.7814 117.97 60.8545C117.805 63.9276 117.04 66.9442 115.734 69.6678C114.434 72.3915 112.6 74.8222 110.405 76.8007C108.206 78.774 105.636 80.2849 102.908 81.2407C100.179 82.2017 97.2907 82.5974 94.4642 82.4381C97.2907 82.2737 100.05 81.5542 102.538 80.3466C105.03 79.144 107.245 77.4533 109.043 75.4337C110.837 73.409 112.209 71.0553 113.067 68.5578C113.931 66.0603 114.275 63.4291 114.121 60.8545C113.956 58.2748 113.288 55.7721 112.178 53.5161C111.073 51.2601 109.526 49.2559 107.682 47.6371C105.837 46.0184 103.694 44.7902 101.433 44.0296C99.1715 43.2639 96.7973 42.971 94.4642 43.1251C92.3367 43.2639 90.497 41.6554 90.3531 39.5279C90.2143 37.4003 91.8228 35.5606 93.9503 35.4167C94.0994 35.4064 94.2484 35.4064 94.3923 35.4116H94.4591Z" fill="#FBFBFB"/>
<path d="M23.5396 78.5829C26.5305 78.7371 29.6241 78.2283 32.6664 77.2108C35.7138 76.1984 38.7047 74.6978 41.5979 72.9352C47.3998 69.4047 52.8111 64.8979 58.1864 60.3345C63.5721 55.766 68.9063 51.0073 74.7544 46.855C77.6785 44.7943 80.7516 42.8877 84.0559 41.4643C87.3448 40.0459 90.9113 39.1415 94.4572 39.2699C90.9061 39.4703 87.535 40.6677 84.4722 42.3327C81.3991 44.0029 78.5983 46.115 75.9312 48.3813C70.6073 52.9395 65.7921 58.0939 60.8124 63.1558C55.8328 68.2228 50.7658 73.3257 44.8303 77.735C41.86 79.9293 38.6584 81.9438 35.1074 83.5009C31.5667 85.058 27.6354 86.1269 23.5396 86.2913H23.4934C21.3659 86.3787 19.5672 84.7188 19.4799 82.5913C19.3925 80.4637 21.0524 78.6651 23.1799 78.5778C23.2981 78.5726 23.4214 78.5778 23.5396 78.5829Z" fill="#FBFBFB"/>
<path d="M13.4287 24.6713L13.6702 17.6823C13.6754 17.5281 13.6754 17.4151 13.6908 17.2198L13.7319 16.6493C13.7679 16.2691 13.7782 15.8939 13.845 15.5136C13.9786 14.7531 14.1122 13.9976 14.3691 13.2576C14.5747 12.5125 14.9139 11.8033 15.2376 11.1044L15.808 10.0972C15.993 9.75802 16.2397 9.46509 16.4556 9.15162C17.3549 7.93369 18.4084 6.86993 19.5543 6.01686C20.69 5.14838 21.8926 4.42893 23.1259 3.86364C23.7374 3.5553 24.3644 3.33433 24.9862 3.07738C25.6183 2.87182 26.2401 2.63543 26.8773 2.47613L27.8281 2.21918L28.7839 2.00848C29.1076 1.9314 29.4057 1.88515 29.7038 1.83376L30.5979 1.68472C35.3618 0.877908 40.0947 0.461653 44.8226 0.214983C49.5504 -0.0265474 54.268 -0.0573811 58.9804 0.0865095C63.6877 0.2304 68.3898 0.533601 73.0714 1.05263C77.7478 1.58195 82.4191 2.29626 87.0082 3.51933C88.1491 3.82253 89.3053 4.14628 90.4256 4.58309C91.551 4.99935 92.6508 5.49783 93.7043 6.07853C95.8061 7.23479 97.7794 8.77647 99.1361 10.8064C100.529 12.8105 101.104 15.3132 100.966 17.6617L100.724 24.6507L100.483 17.6617C100.477 17.3688 100.452 17.081 100.426 16.7984C100.395 16.5157 100.39 16.228 100.339 15.9505C100.226 15.3954 100.133 14.8353 99.9327 14.306C99.5781 13.2422 99.0591 12.235 98.355 11.3665C96.9881 9.5987 95.0815 8.30369 93.0465 7.36326C92.029 6.88534 90.9652 6.49478 89.8809 6.17617C88.8017 5.837 87.6917 5.60575 86.5611 5.38991C82.0645 4.51629 77.4498 4.13087 72.8401 3.93045C68.2253 3.74031 63.6054 3.76086 58.9906 3.94072C54.381 4.11545 49.7765 4.47004 45.2183 5.01477C40.66 5.56464 36.1326 6.28923 31.7593 7.34271L30.9371 7.53799C30.6596 7.60479 30.3872 7.66646 30.1509 7.74355L29.4108 7.95938L28.6863 8.21119C28.1981 8.36536 27.7458 8.58633 27.2782 8.7662C26.8362 8.99231 26.3737 9.18245 25.9626 9.43426C25.1044 9.89677 24.3387 10.4518 23.6655 11.0479C22.9769 11.6337 22.4322 12.3018 22.0005 12.9904C21.9028 13.1703 21.7692 13.3296 21.6973 13.5146C21.6151 13.6944 21.5328 13.8743 21.4403 14.049C21.3633 14.2289 21.317 14.419 21.2451 14.6041C21.168 14.7839 21.132 14.974 21.0909 15.1693C20.983 15.5393 20.9624 15.9453 20.911 16.3359C20.8905 16.5312 20.911 16.7418 20.9007 16.9423L20.8956 17.2455C20.8905 17.3431 20.9059 17.523 20.9059 17.6566L21.1474 24.6455C21.2194 26.7731 19.5543 28.5614 17.4268 28.6334C15.2993 28.7053 13.5109 27.0403 13.439 24.9128C13.4287 24.8511 13.4287 24.7535 13.4287 24.6713Z" fill="#FBFBFB"/>
<path d="M31.22 109.493C30.14 109.493 29.0933 109.34 28.08 109.033C27.08 108.726 26.2867 108.32 25.7 107.813L26.6 105.793C27.1733 106.246 27.8733 106.62 28.7 106.913C29.54 107.193 30.38 107.333 31.22 107.333C32.26 107.333 33.0333 107.166 33.54 106.833C34.06 106.5 34.32 106.06 34.32 105.513C34.32 105.113 34.1733 104.786 33.88 104.533C33.6 104.266 33.24 104.06 32.8 103.913C32.36 103.766 31.76 103.6 31 103.413C29.9333 103.16 29.0667 102.906 28.4 102.653C27.7467 102.4 27.18 102.006 26.7 101.473C26.2333 100.926 26 100.193 26 99.273C26 98.4996 26.2067 97.7996 26.62 97.173C27.0467 96.533 27.68 96.0263 28.52 95.653C29.3733 95.2796 30.4133 95.093 31.64 95.093C32.4933 95.093 33.3333 95.1996 34.16 95.413C34.9867 95.6263 35.7 95.933 36.3 96.333L35.48 98.353C34.8667 97.993 34.2267 97.7196 33.56 97.533C32.8933 97.3463 32.2467 97.253 31.62 97.253C30.5933 97.253 29.8267 97.4263 29.32 97.773C28.8267 98.1196 28.58 98.5796 28.58 99.153C28.58 99.553 28.72 99.8796 29 100.133C29.2933 100.386 29.66 100.586 30.1 100.733C30.54 100.88 31.14 101.046 31.9 101.233C32.94 101.473 33.7933 101.726 34.46 101.993C35.1267 102.246 35.6933 102.64 36.16 103.173C36.64 103.706 36.88 104.426 36.88 105.333C36.88 106.106 36.6667 106.806 36.24 107.433C35.8267 108.06 35.1933 108.56 34.34 108.933C33.4867 109.306 32.4467 109.493 31.22 109.493ZM44.2981 107.313C45.4581 107.313 46.4248 106.926 47.1981 106.153L48.5181 107.693C48.0515 108.266 47.4515 108.7 46.7181 108.993C45.9848 109.286 45.1581 109.433 44.2381 109.433C43.0648 109.433 42.0315 109.2 41.1381 108.733C40.2448 108.266 39.5515 107.62 39.0581 106.793C38.5781 105.953 38.3381 105.006 38.3381 103.953C38.3381 102.913 38.5715 101.98 39.0381 101.153C39.5181 100.313 40.1715 99.6596 40.9981 99.193C41.8381 98.7263 42.7848 98.493 43.8381 98.493C44.8381 98.493 45.7448 98.713 46.5581 99.153C47.3848 99.5796 48.0381 100.2 48.5181 101.013C48.9981 101.813 49.2381 102.753 49.2381 103.833L41.0581 105.433C41.3115 106.046 41.7181 106.513 42.2781 106.833C42.8381 107.153 43.5115 107.313 44.2981 107.313ZM43.8381 100.493C42.9181 100.493 42.1715 100.793 41.5981 101.393C41.0381 101.993 40.7581 102.8 40.7581 103.813V103.833L46.7981 102.673C46.6248 102.02 46.2715 101.493 45.7381 101.093C45.2181 100.693 44.5848 100.493 43.8381 100.493ZM62.08 98.613V109.293H59.7V107.913C59.2867 108.42 58.7733 108.8 58.16 109.053C57.56 109.306 56.8933 109.433 56.16 109.433C55.12 109.433 54.1867 109.206 53.36 108.753C52.5467 108.3 51.9067 107.66 51.44 106.833C50.9867 106.006 50.76 105.046 50.76 103.953C50.76 102.86 50.9867 101.906 51.44 101.093C51.9067 100.266 52.5467 99.6263 53.36 99.173C54.1867 98.7196 55.12 98.493 56.16 98.493C56.8533 98.493 57.4867 98.613 58.06 98.853C58.6467 99.093 59.1533 99.4463 59.58 99.913V98.613H62.08ZM56.44 107.293C57.36 107.293 58.12 106.986 58.72 106.373C59.32 105.76 59.62 104.953 59.62 103.953C59.62 102.953 59.32 102.146 58.72 101.533C58.12 100.92 57.36 100.613 56.44 100.613C55.52 100.613 54.76 100.92 54.16 101.533C53.5733 102.146 53.28 102.953 53.28 103.953C53.28 104.953 53.5733 105.76 54.16 106.373C54.76 106.986 55.52 107.293 56.44 107.293ZM71.3509 108.713C71.0576 108.953 70.6976 109.133 70.2709 109.253C69.8576 109.373 69.4176 109.433 68.9509 109.433C67.7776 109.433 66.8709 109.126 66.2309 108.513C65.5909 107.9 65.2709 107.006 65.2709 105.833V96.253H67.7709V98.693H70.6309V100.693H67.7709V105.773C67.7709 106.293 67.8976 106.693 68.1509 106.973C68.4176 107.24 68.7843 107.373 69.2509 107.373C69.8109 107.373 70.2776 107.226 70.6509 106.933L71.3509 108.713ZM76.9373 109.433C75.8307 109.433 74.964 109.133 74.3373 108.533C73.724 107.92 73.4173 107.06 73.4173 105.953V94.453H75.9173V105.773C75.9173 106.84 76.4173 107.373 77.4173 107.373C77.7507 107.373 78.0507 107.306 78.3173 107.173L78.4373 109.173C77.9707 109.346 77.4707 109.433 76.9373 109.433ZM90.4761 98.613V107.673C90.4761 111.433 88.6294 113.313 84.9361 113.313C83.9628 113.313 83.0294 113.18 82.1361 112.913C81.2561 112.66 80.5294 112.286 79.9561 111.793L81.0761 109.913C81.5294 110.3 82.0828 110.606 82.7361 110.833C83.3894 111.06 84.0761 111.173 84.7961 111.173C85.8894 111.173 86.6894 110.906 87.1961 110.373C87.7161 109.853 87.9761 109.046 87.9761 107.953V107.453C87.5761 107.893 87.0894 108.233 86.5161 108.473C85.9428 108.7 85.3228 108.813 84.6561 108.813C83.2294 108.813 82.1028 108.42 81.2761 107.633C80.4628 106.846 80.0561 105.666 80.0561 104.093V98.613H82.5561V103.773C82.5561 104.72 82.7694 105.433 83.1961 105.913C83.6361 106.38 84.2561 106.613 85.0561 106.613C85.9494 106.613 86.6561 106.34 87.1761 105.793C87.7094 105.246 87.9761 104.453 87.9761 103.413V98.613H90.4761Z" fill="#FBFBFB"/>
</svg>
