<svg width="168" height="52" viewBox="0 0 168 52" fill="none" xmlns="http://www.w3.org/2000/svg">
<path d="M9.02979 14.6356L9.17307 10.4896C9.17612 10.3981 9.17612 10.3311 9.18526 10.2152L9.20965 9.87683C9.23099 9.65123 9.23709 9.42869 9.27672 9.2031C9.35598 8.75191 9.43524 8.30377 9.58767 7.86477C9.70961 7.42273 9.91082 7.00204 10.1029 6.58744L10.4413 5.98992C10.551 5.78871 10.6973 5.61494 10.8254 5.42898C11.3589 4.70647 11.9838 4.07542 12.6637 3.56936C13.3374 3.05415 14.0508 2.62735 14.7824 2.29201C15.1452 2.1091 15.5171 1.97801 15.886 1.82558C16.261 1.70364 16.6298 1.56341 17.0079 1.4689L17.5718 1.31647L18.1389 1.19148C18.3309 1.14575 18.5078 1.11832 18.6846 1.08783L19.215 0.999422C22.041 0.520798 24.8488 0.273865 27.6534 0.127534C30.4581 -0.0157486 33.2567 -0.0340399 36.0522 0.0513197C38.8447 0.136679 41.6341 0.316546 44.4114 0.62445C47.1856 0.938452 49.9567 1.3622 52.6791 2.08776C53.3558 2.26762 54.0418 2.45968 54.7063 2.71881C55.374 2.96574 56.0264 3.26145 56.6513 3.60594C57.8982 4.29187 59.0688 5.20643 59.8737 6.41061C60.6998 7.59955 61.0413 9.0842 60.9589 10.4774L60.8157 14.6234L60.6724 10.4774C60.6693 10.3036 60.6541 10.1329 60.6388 9.96524C60.6206 9.79757 60.6175 9.62685 60.587 9.46222C60.5199 9.13298 60.4651 8.80068 60.3462 8.48668C60.1358 7.85563 59.8279 7.25811 59.4103 6.74291C58.5994 5.6942 57.4683 4.92597 56.2611 4.36808C55.6575 4.08456 55.0264 3.85287 54.3832 3.66386C53.743 3.46266 53.0845 3.32547 52.4138 3.19743C49.7463 2.67918 47.0087 2.45054 44.2742 2.33165C41.5366 2.21885 38.7959 2.23104 36.0583 2.33774C33.3238 2.44139 30.5922 2.65174 27.8882 2.97489C25.1841 3.30109 22.4983 3.73093 19.904 4.35589L19.4162 4.47173C19.2516 4.51136 19.09 4.54795 18.9498 4.59368L18.5108 4.72171L18.081 4.87109C17.7913 4.96255 17.5231 5.09364 17.2457 5.20034C16.9835 5.33447 16.7091 5.44727 16.4652 5.59665C15.9561 5.87102 15.5019 6.20026 15.1025 6.5539C14.694 6.90143 14.3709 7.29774 14.1148 7.70625C14.0569 7.81295 13.9776 7.90745 13.9349 8.0172C13.8861 8.1239 13.8374 8.2306 13.7825 8.33425C13.7368 8.44095 13.7093 8.55376 13.6666 8.6635C13.6209 8.7702 13.5996 8.88299 13.5752 8.99884C13.5112 9.21833 13.499 9.45918 13.4685 9.69087C13.4563 9.80671 13.4685 9.9317 13.4624 10.0506L13.4593 10.2305C13.4563 10.2884 13.4654 10.3951 13.4654 10.4743L13.6087 14.6204C13.6514 15.8825 12.6637 16.9434 11.4016 16.9861C10.1395 17.0287 9.07856 16.041 9.03588 14.7789C9.02979 14.7423 9.02979 14.6844 9.02979 14.6356Z" fill="black"/>
<path d="M13.9649 51.1706C11.9955 51.0731 10.0536 50.5883 8.2976 49.7561C6.54163 48.9269 4.97467 47.7562 3.69732 46.3448C2.42303 44.9333 1.43834 43.284 0.816436 41.525C0.188433 39.766 -0.0737436 37.9002 0.0177132 36.0772C0.115267 34.2542 0.569503 32.4647 1.34384 30.8489C2.11512 29.2332 3.20346 27.7912 4.50519 26.6175C5.80998 25.4469 7.33426 24.5506 8.95304 23.9836C10.5718 23.4135 12.2851 23.1788 13.9618 23.2733C12.2851 23.3708 10.648 23.7976 9.17254 24.514C7.69398 25.2274 6.38006 26.2304 5.31306 27.4284C4.24911 28.6296 3.43515 30.0258 2.92604 31.5074C2.41388 32.989 2.20963 34.5499 2.30108 36.0772C2.39864 37.6076 2.79495 39.0922 3.45344 40.4305C4.10888 41.7689 5.0265 42.9578 6.12093 43.9181C7.21536 44.8784 8.48661 45.607 9.82798 46.0582C11.1693 46.5124 12.5778 46.6862 13.9618 46.5947C15.2239 46.5124 16.3153 47.4666 16.4007 48.7287C16.483 49.9908 15.5288 51.0822 14.2667 51.1676C14.1783 51.1737 14.0899 51.1737 14.0045 51.1706H13.9649Z" fill="black"/>
<path d="M56.0355 20.9893C58.0048 21.0869 59.9468 21.5716 61.7027 22.4038C63.4587 23.233 65.0257 24.4037 66.303 25.8152C67.5773 27.2267 68.562 28.8759 69.1839 30.6349C69.8119 32.394 70.0741 34.2597 69.9826 36.0827C69.8851 37.9058 69.4308 39.6953 68.6565 41.311C67.8852 42.9267 66.7969 44.3687 65.4952 45.5424C64.1904 46.713 62.6661 47.6093 61.0473 48.1764C59.4285 48.7464 57.7152 48.9812 56.0385 48.8867C57.7152 48.7891 59.3523 48.3623 60.8278 47.6459C62.3064 46.9325 63.6203 45.9296 64.6873 44.7315C65.7512 43.5303 66.5652 42.1341 67.0743 40.6525C67.5865 39.1709 67.7907 37.61 67.6993 36.0827C67.6017 34.5523 67.2054 33.0677 66.5469 31.7294C65.8915 30.3911 64.9739 29.2021 63.8794 28.2418C62.785 27.2815 61.5137 26.5529 60.1724 26.1017C58.831 25.6475 57.4226 25.4737 56.0385 25.5652C54.7764 25.6475 53.685 24.6933 53.5997 23.4312C53.5174 22.1691 54.4716 21.0777 55.7337 20.9924C55.8221 20.9863 55.9105 20.9863 55.9958 20.9893H56.0355Z" fill="black"/>
<path d="M13.965 46.5972C15.7393 46.6887 17.5745 46.3869 19.3792 45.7832C21.187 45.1827 22.9613 44.2925 24.6776 43.2468C28.1195 41.1525 31.3296 38.4789 34.5184 35.7718C37.7133 33.0616 40.8777 30.2386 44.3469 27.7754C46.0816 26.5529 47.9046 25.4219 49.8648 24.5775C51.8159 23.7361 53.9316 23.1995 56.0351 23.2757C53.9286 23.3946 51.9287 24.1049 50.1118 25.0927C48.2887 26.0835 46.6273 27.3364 45.0451 28.6808C41.8868 31.3849 39.0303 34.4426 36.0762 37.4454C33.1221 40.4513 30.1163 43.4785 26.5952 46.0942C24.8331 47.3959 22.9339 48.591 20.8273 49.5147C18.7269 50.4384 16.3947 51.0725 13.965 51.1701H13.9376C12.6755 51.2219 11.6085 50.2372 11.5566 48.9751C11.5048 47.713 12.4895 46.646 13.7516 46.5942C13.8217 46.5911 13.8949 46.5942 13.965 46.5972Z" fill="black"/>
<path d="M94.464 34.24C93.168 34.24 91.912 34.056 90.696 33.688C89.496 33.32 88.544 32.832 87.84 32.224L88.92 29.8C89.608 30.344 90.448 30.792 91.44 31.144C92.448 31.48 93.456 31.648 94.464 31.648C95.712 31.648 96.64 31.448 97.248 31.048C97.872 30.648 98.184 30.12 98.184 29.464C98.184 28.984 98.008 28.592 97.656 28.288C97.32 27.968 96.888 27.72 96.36 27.544C95.832 27.368 95.112 27.168 94.2 26.944C92.92 26.64 91.88 26.336 91.08 26.032C90.296 25.728 89.616 25.256 89.04 24.616C88.48 23.96 88.2 23.08 88.2 21.976C88.2 21.048 88.448 20.208 88.944 19.456C89.456 18.688 90.216 18.08 91.224 17.632C92.248 17.184 93.496 16.96 94.968 16.96C95.992 16.96 97 17.088 97.992 17.344C98.984 17.6 99.84 17.968 100.56 18.448L99.576 20.872C98.84 20.44 98.072 20.112 97.272 19.888C96.472 19.664 95.696 19.552 94.944 19.552C93.712 19.552 92.792 19.76 92.184 20.176C91.592 20.592 91.296 21.144 91.296 21.832C91.296 22.312 91.464 22.704 91.8 23.008C92.152 23.312 92.592 23.552 93.12 23.728C93.648 23.904 94.368 24.104 95.28 24.328C96.528 24.616 97.552 24.92 98.352 25.24C99.152 25.544 99.832 26.016 100.392 26.656C100.968 27.296 101.256 28.16 101.256 29.248C101.256 30.176 101 31.016 100.488 31.768C99.992 32.52 99.232 33.12 98.208 33.568C97.184 34.016 95.936 34.24 94.464 34.24ZM110.158 31.624C111.55 31.624 112.71 31.16 113.638 30.232L115.222 32.08C114.662 32.768 113.942 33.288 113.062 33.64C112.182 33.992 111.19 34.168 110.086 34.168C108.678 34.168 107.438 33.888 106.366 33.328C105.294 32.768 104.462 31.992 103.87 31C103.294 29.992 103.006 28.856 103.006 27.592C103.006 26.344 103.286 25.224 103.846 24.232C104.422 23.224 105.206 22.44 106.198 21.88C107.206 21.32 108.342 21.04 109.606 21.04C110.806 21.04 111.894 21.304 112.87 21.832C113.862 22.344 114.646 23.088 115.222 24.064C115.798 25.024 116.086 26.152 116.086 27.448L106.27 29.368C106.574 30.104 107.062 30.664 107.734 31.048C108.406 31.432 109.214 31.624 110.158 31.624ZM109.606 23.44C108.502 23.44 107.606 23.8 106.918 24.52C106.246 25.24 105.91 26.208 105.91 27.424V27.448L113.158 26.056C112.95 25.272 112.526 24.64 111.886 24.16C111.262 23.68 110.502 23.44 109.606 23.44ZM131.496 21.184V34H128.64V32.344C128.144 32.952 127.528 33.408 126.792 33.712C126.072 34.016 125.272 34.168 124.392 34.168C123.144 34.168 122.024 33.896 121.032 33.352C120.056 32.808 119.288 32.04 118.728 31.048C118.184 30.056 117.912 28.904 117.912 27.592C117.912 26.28 118.184 25.136 118.728 24.16C119.288 23.168 120.056 22.4 121.032 21.856C122.024 21.312 123.144 21.04 124.392 21.04C125.224 21.04 125.984 21.184 126.672 21.472C127.376 21.76 127.984 22.184 128.496 22.744V21.184H131.496ZM124.728 31.6C125.832 31.6 126.744 31.232 127.464 30.496C128.184 29.76 128.544 28.792 128.544 27.592C128.544 26.392 128.184 25.424 127.464 24.688C126.744 23.952 125.832 23.584 124.728 23.584C123.624 23.584 122.712 23.952 121.992 24.688C121.288 25.424 120.936 26.392 120.936 27.592C120.936 28.792 121.288 29.76 121.992 30.496C122.712 31.232 123.624 31.6 124.728 31.6ZM142.621 33.304C142.269 33.592 141.837 33.808 141.325 33.952C140.829 34.096 140.301 34.168 139.741 34.168C138.333 34.168 137.245 33.8 136.477 33.064C135.709 32.328 135.325 31.256 135.325 29.848V18.352H138.325V21.28H141.757V23.68H138.325V29.776C138.325 30.4 138.477 30.88 138.781 31.216C139.101 31.536 139.541 31.696 140.101 31.696C140.773 31.696 141.333 31.52 141.781 31.168L142.621 33.304ZM149.325 34.168C147.997 34.168 146.957 33.808 146.205 33.088C145.469 32.352 145.101 31.32 145.101 29.992V16.192H148.101V29.776C148.101 31.056 148.701 31.696 149.901 31.696C150.301 31.696 150.661 31.616 150.981 31.456L151.125 33.856C150.565 34.064 149.965 34.168 149.325 34.168ZM165.571 21.184V32.056C165.571 36.568 163.355 38.824 158.923 38.824C157.755 38.824 156.635 38.664 155.563 38.344C154.507 38.04 153.635 37.592 152.947 37L154.291 34.744C154.835 35.208 155.499 35.576 156.283 35.848C157.067 36.12 157.891 36.256 158.755 36.256C160.067 36.256 161.027 35.936 161.635 35.296C162.259 34.672 162.571 33.704 162.571 32.392V31.792C162.091 32.32 161.507 32.728 160.819 33.016C160.131 33.288 159.387 33.424 158.587 33.424C156.875 33.424 155.523 32.952 154.531 32.008C153.555 31.064 153.067 29.648 153.067 27.76V21.184H156.067V27.376C156.067 28.512 156.323 29.368 156.835 29.944C157.363 30.504 158.107 30.784 159.067 30.784C160.139 30.784 160.987 30.456 161.611 29.8C162.251 29.144 162.571 28.192 162.571 26.944V21.184H165.571Z" fill="black"/>
</svg>
