<svg width="269" height="131" viewBox="0 0 269 131" fill="none" xmlns="http://www.w3.org/2000/svg">
<path d="M29.5258 130.233C25.362 130.027 21.2562 129.002 17.5435 127.242C13.8309 125.489 10.5179 123.014 7.81721 120.03C5.12298 117.046 3.04107 113.559 1.72618 109.839C0.398401 106.12 -0.155915 102.176 0.0374508 98.3213C0.243708 94.4668 1.20409 90.6833 2.84126 87.2672C4.47198 83.851 6.77304 80.8023 9.52528 78.3208C12.284 75.8457 15.5067 73.9507 18.9293 72.7518C22.3519 71.5465 25.9743 71.0502 29.5193 71.25C25.9743 71.4563 22.513 72.3586 19.3934 73.8733C16.2673 75.3816 13.4893 77.5022 11.2333 80.0353C8.98386 82.5748 7.2629 85.5269 6.18649 88.6594C5.10364 91.7919 4.67179 95.0921 4.86516 98.3213C5.07142 101.557 5.90934 104.696 7.30157 107.525C8.68736 110.355 10.6275 112.869 12.9414 114.899C15.2554 116.93 17.9432 118.47 20.7792 119.424C23.6152 120.384 26.5931 120.752 29.5193 120.558C32.1878 120.384 34.4953 122.402 34.6758 125.07C34.8498 127.739 32.8323 130.046 30.1639 130.227C29.977 130.24 29.7901 130.24 29.6096 130.233H29.5258Z" fill="black"/>
<path d="M118.475 66.4232C122.639 66.6294 126.745 67.6543 130.457 69.4139C134.17 71.1671 137.483 73.6422 140.183 76.6265C142.878 79.6107 144.96 83.0978 146.275 86.8169C147.602 90.5359 148.157 94.4806 147.963 98.335C147.757 102.189 146.797 105.973 145.159 109.389C143.529 112.805 141.228 115.854 138.475 118.336C135.717 120.811 132.494 122.706 129.071 123.904C125.649 125.11 122.026 125.606 118.481 125.406C122.026 125.2 125.488 124.298 128.607 122.783C131.733 121.275 134.511 119.154 136.767 116.621C139.017 114.081 140.738 111.129 141.814 107.997C142.897 104.864 143.329 101.564 143.136 98.335C142.929 95.0994 142.091 91.9604 140.699 89.1308C139.313 86.3012 137.373 83.7874 135.059 81.7571C132.745 79.7268 130.058 78.1863 127.222 77.2323C124.385 76.272 121.408 75.9046 118.481 76.0979C115.813 76.272 113.505 74.2545 113.325 71.586C113.151 68.9176 115.168 66.6101 117.837 66.4296C118.024 66.4167 118.211 66.4167 118.391 66.4232H118.475Z" fill="black"/>
<path d="M29.5258 120.565C33.2771 120.758 37.1573 120.12 40.9731 118.844C44.7953 117.574 48.5466 115.692 52.1754 113.481C59.4524 109.053 66.2396 103.4 72.9816 97.6767C79.7365 91.9466 86.427 85.978 93.762 80.77C97.4295 78.1853 101.284 75.7941 105.428 74.0086C109.554 72.2297 114.027 71.0953 118.474 71.2564C114.02 71.5078 109.792 73.0096 105.951 75.0979C102.096 77.1927 98.5833 79.8418 95.2381 82.6843C88.5605 88.4015 82.521 94.8664 76.2753 101.215C70.0296 107.571 63.6743 113.971 56.2297 119.501C52.5041 122.253 48.4886 124.78 44.0347 126.733C39.5937 128.686 34.6629 130.027 29.5258 130.233H29.4678C26.7993 130.343 24.5434 128.261 24.4338 125.592C24.3242 122.924 26.4062 120.668 29.0746 120.558C29.2229 120.552 29.3775 120.558 29.5258 120.565Z" fill="black"/>
<path d="M16.8418 52.944L17.1447 44.178C17.1512 43.9847 17.1512 43.8429 17.1705 43.5979L17.2221 42.8825C17.2672 42.4055 17.2801 41.935 17.3639 41.458C17.5315 40.5041 17.6991 39.5566 18.0213 38.6284C18.2792 37.6938 18.7046 36.8043 19.1106 35.9277L19.8261 34.6644C20.0581 34.239 20.3675 33.8716 20.6382 33.4784C21.7662 31.9508 23.0875 30.6166 24.5249 29.5467C25.9493 28.4574 27.4576 27.555 29.0045 26.846C29.7715 26.4592 30.5579 26.1821 31.3378 25.8598C32.1306 25.602 32.9105 25.3055 33.7098 25.1057L34.9022 24.7834L36.1011 24.5191C36.5071 24.4225 36.881 24.3644 37.2548 24.3L38.3763 24.1131C44.3514 23.1011 50.2877 22.579 56.2176 22.2696C62.1475 21.9667 68.0645 21.928 73.975 22.1085C79.8792 22.289 85.7768 22.6693 91.6487 23.3203C97.5142 23.9842 103.373 24.8801 109.129 26.4141C110.56 26.7944 112.01 27.2005 113.415 27.7484C114.827 28.2704 116.206 28.8957 117.528 29.624C120.164 31.0743 122.639 33.0079 124.34 35.5539C126.087 38.0677 126.809 41.2066 126.635 44.1522L126.332 52.9182L126.029 44.1522C126.023 43.7848 125.991 43.4239 125.958 43.0694C125.92 42.7149 125.913 42.3539 125.849 42.0059C125.707 41.3098 125.591 40.6072 125.34 39.9433C124.895 38.6091 124.244 37.3458 123.361 36.2565C121.646 34.0392 119.255 32.4149 116.703 31.2354C115.426 30.636 114.092 30.1461 112.732 29.7465C111.378 29.3211 109.986 29.031 108.568 28.7603C102.928 27.6646 97.1403 27.1811 91.3587 26.9298C85.5706 26.6913 79.776 26.7171 73.9879 26.9427C68.2063 27.1618 62.4311 27.6066 56.7139 28.2898C50.9967 28.9795 45.3182 29.8883 39.833 31.2096L38.8017 31.4545C38.4537 31.5383 38.1121 31.6157 37.8156 31.7124L36.8874 31.9831L35.9786 32.2989C35.3663 32.4923 34.7991 32.7694 34.2125 32.995C33.6582 33.2786 33.0781 33.5171 32.5625 33.8329C31.4861 34.413 30.5257 35.1092 29.6813 35.8568C28.8176 36.5916 28.1344 37.4295 27.593 38.2933C27.4705 38.5188 27.3029 38.7186 27.2127 38.9507C27.1095 39.1763 27.0064 39.4019 26.8904 39.621C26.7937 39.8466 26.7357 40.0851 26.6455 40.3172C26.5488 40.5428 26.5037 40.7812 26.4521 41.0262C26.3167 41.4902 26.291 41.9994 26.2265 42.4893C26.2007 42.7342 26.2265 42.9985 26.2136 43.2499L26.2072 43.6302C26.2007 43.7526 26.2201 43.9782 26.2201 44.1458L26.523 52.9117C26.6132 55.5802 24.5249 57.8232 21.8564 57.9135C19.188 58.0037 16.9449 55.9154 16.8547 53.2469C16.8418 53.1696 16.8418 53.0471 16.8418 52.944Z" fill="black"/>
<path d="M159.196 35.36C157.252 35.36 155.368 35.084 153.544 34.532C151.744 33.98 150.316 33.248 149.26 32.336L150.88 28.7C151.912 29.516 153.172 30.188 154.66 30.716C156.172 31.22 157.684 31.472 159.196 31.472C161.068 31.472 162.46 31.172 163.372 30.572C164.308 29.972 164.776 29.18 164.776 28.196C164.776 27.476 164.512 26.888 163.984 26.432C163.48 25.952 162.832 25.58 162.04 25.316C161.248 25.052 160.168 24.752 158.8 24.416C156.88 23.96 155.32 23.504 154.12 23.048C152.944 22.592 151.924 21.884 151.06 20.924C150.22 19.94 149.8 18.62 149.8 16.964C149.8 15.572 150.172 14.312 150.916 13.184C151.684 12.032 152.824 11.12 154.336 10.448C155.872 9.776 157.744 9.44 159.952 9.44C161.488 9.44 163 9.632 164.488 10.016C165.976 10.4 167.26 10.952 168.34 11.672L166.864 15.308C165.76 14.66 164.608 14.168 163.408 13.832C162.208 13.496 161.044 13.328 159.916 13.328C158.068 13.328 156.688 13.64 155.776 14.264C154.888 14.888 154.444 15.716 154.444 16.748C154.444 17.468 154.696 18.056 155.2 18.512C155.728 18.968 156.388 19.328 157.18 19.592C157.972 19.856 159.052 20.156 160.42 20.492C162.292 20.924 163.828 21.38 165.028 21.86C166.228 22.316 167.248 23.024 168.088 23.984C168.952 24.944 169.384 26.24 169.384 27.872C169.384 29.264 169 30.524 168.232 31.652C167.488 32.78 166.348 33.68 164.812 34.352C163.276 35.024 161.404 35.36 159.196 35.36ZM182.737 31.436C184.825 31.436 186.565 30.74 187.957 29.348L190.333 32.12C189.493 33.152 188.413 33.932 187.093 34.46C185.773 34.988 184.285 35.252 182.629 35.252C180.517 35.252 178.657 34.832 177.049 33.992C175.441 33.152 174.193 31.988 173.305 30.5C172.441 28.988 172.009 27.284 172.009 25.388C172.009 23.516 172.429 21.836 173.269 20.348C174.133 18.836 175.309 17.66 176.797 16.82C178.309 15.98 180.013 15.56 181.909 15.56C183.709 15.56 185.341 15.956 186.805 16.748C188.293 17.516 189.469 18.632 190.333 20.096C191.197 21.536 191.629 23.228 191.629 25.172L176.905 28.052C177.361 29.156 178.093 29.996 179.101 30.572C180.109 31.148 181.321 31.436 182.737 31.436ZM181.909 19.16C180.253 19.16 178.909 19.7 177.877 20.78C176.869 21.86 176.365 23.312 176.365 25.136V25.172L187.237 23.084C186.925 21.908 186.289 20.96 185.329 20.24C184.393 19.52 183.253 19.16 181.909 19.16ZM214.744 15.776V35H210.46V32.516C209.716 33.428 208.792 34.112 207.688 34.568C206.608 35.024 205.408 35.252 204.088 35.252C202.216 35.252 200.536 34.844 199.048 34.028C197.584 33.212 196.432 32.06 195.592 30.572C194.776 29.084 194.368 27.356 194.368 25.388C194.368 23.42 194.776 21.704 195.592 20.24C196.432 18.752 197.584 17.6 199.048 16.784C200.536 15.968 202.216 15.56 204.088 15.56C205.336 15.56 206.476 15.776 207.508 16.208C208.564 16.64 209.476 17.276 210.244 18.116V15.776H214.744ZM204.592 31.4C206.248 31.4 207.616 30.848 208.696 29.744C209.776 28.64 210.316 27.188 210.316 25.388C210.316 23.588 209.776 22.136 208.696 21.032C207.616 19.928 206.248 19.376 204.592 19.376C202.936 19.376 201.568 19.928 200.488 21.032C199.432 22.136 198.904 23.588 198.904 25.388C198.904 27.188 199.432 28.64 200.488 29.744C201.568 30.848 202.936 31.4 204.592 31.4ZM231.432 33.956C230.904 34.388 230.256 34.712 229.488 34.928C228.744 35.144 227.952 35.252 227.112 35.252C225 35.252 223.368 34.7 222.216 33.596C221.064 32.492 220.488 30.884 220.488 28.772V11.528H224.988V15.92H230.136V19.52H224.988V28.664C224.988 29.6 225.216 30.32 225.672 30.824C226.152 31.304 226.812 31.544 227.652 31.544C228.66 31.544 229.5 31.28 230.172 30.752L231.432 33.956ZM241.487 35.252C239.495 35.252 237.935 34.712 236.807 33.632C235.703 32.528 235.151 30.98 235.151 28.988V8.288H239.651V28.664C239.651 30.584 240.551 31.544 242.351 31.544C242.951 31.544 243.491 31.424 243.971 31.184L244.187 34.784C243.347 35.096 242.447 35.252 241.487 35.252ZM265.857 15.776V32.084C265.857 38.852 262.533 42.236 255.885 42.236C254.133 42.236 252.453 41.996 250.845 41.516C249.261 41.06 247.953 40.388 246.921 39.5L248.937 36.116C249.753 36.812 250.749 37.364 251.925 37.772C253.101 38.18 254.337 38.384 255.633 38.384C257.601 38.384 259.041 37.904 259.953 36.944C260.889 36.008 261.357 34.556 261.357 32.588V31.688C260.637 32.48 259.761 33.092 258.729 33.524C257.697 33.932 256.581 34.136 255.381 34.136C252.813 34.136 250.785 33.428 249.297 32.012C247.833 30.596 247.101 28.472 247.101 25.64V15.776H251.601V25.064C251.601 26.768 251.985 28.052 252.753 28.916C253.545 29.756 254.661 30.176 256.101 30.176C257.709 30.176 258.981 29.684 259.917 28.7C260.877 27.716 261.357 26.288 261.357 24.416V15.776H265.857Z" fill="black"/>
</svg>
