<svg width="68" height="58" viewBox="0 0 68 58" fill="none" xmlns="http://www.w3.org/2000/svg">
<path d="M17.1523 40.9961C15.575 40.918 14.0197 40.5298 12.6134 39.8632C11.207 39.1991 9.95201 38.2615 8.92898 37.1311C7.90839 36.0006 7.11975 34.6797 6.62166 33.2709C6.11869 31.8621 5.90871 30.3678 5.98196 28.9077C6.06009 27.4477 6.42389 26.0144 7.04406 24.7204C7.66179 23.4263 8.53344 22.2715 9.57601 21.3314C10.621 20.3939 11.8418 19.676 13.1383 19.2219C14.4348 18.7653 15.807 18.5773 17.1499 18.653C15.807 18.7311 14.4958 19.073 13.3141 19.6467C12.1299 20.2181 11.0776 21.0214 10.223 21.9809C9.37091 22.9429 8.719 24.0612 8.31125 25.2478C7.90106 26.4344 7.73748 27.6845 7.81072 28.9077C7.88885 30.1334 8.20626 31.3225 8.73365 32.3944C9.2586 33.4662 9.99352 34.4185 10.8701 35.1876C11.7466 35.9567 12.7647 36.5402 13.839 36.9016C14.9134 37.2654 16.0414 37.4045 17.1499 37.3313C18.1607 37.2654 19.0348 38.0296 19.1032 39.0404C19.1691 40.0512 18.4049 40.9253 17.394 40.9937C17.3232 40.9986 17.2524 40.9986 17.1841 40.9961H17.1523Z" fill="black"/>
<path d="M50.8474 16.8258C52.4247 16.904 53.98 17.2922 55.3863 17.9587C56.7927 18.6228 58.0477 19.5604 59.0707 20.6909C60.0913 21.8213 60.88 23.1423 61.378 24.5511C61.881 25.9599 62.091 27.4541 62.0177 28.9142C61.9396 30.3743 61.5758 31.8075 60.9556 33.1016C60.3379 34.3956 59.4663 35.5505 58.4237 36.4905C57.3787 37.4281 56.1579 38.1459 54.8614 38.6001C53.5649 39.0567 52.1927 39.2446 50.8498 39.169C52.1927 39.0908 53.5039 38.749 54.6856 38.1752C55.8698 37.6039 56.9221 36.8006 57.7767 35.841C58.6288 34.8791 59.2807 33.7608 59.6884 32.5742C60.0986 31.3876 60.2622 30.1375 60.189 28.9142C60.1108 27.6885 59.7934 26.4995 59.266 25.4276C58.7411 24.3557 58.0062 23.4035 57.1296 22.6344C56.2531 21.8653 55.235 21.2818 54.1606 20.9204C53.0863 20.5566 51.9583 20.4174 50.8498 20.4907C49.839 20.5566 48.9649 19.7924 48.8965 18.7815C48.8306 17.7707 49.5948 16.8966 50.6057 16.8283C50.6765 16.8234 50.7473 16.8234 50.8156 16.8258H50.8474Z" fill="black"/>
<path d="M17.1521 37.3364C18.5731 37.4096 20.043 37.1679 21.4884 36.6845C22.9363 36.2035 24.3573 35.4905 25.7319 34.6531C28.4885 32.9757 31.0595 30.8344 33.6134 28.6662C36.1722 26.4957 38.7066 24.2347 41.4852 22.2619C42.8744 21.2828 44.3345 20.377 45.9045 19.7007C47.4671 19.0268 49.1616 18.5971 50.8463 18.6581C49.1591 18.7533 47.5574 19.3222 46.1022 20.1133C44.6422 20.9068 43.3115 21.9103 42.0443 22.9871C39.5148 25.1528 37.227 27.6017 34.8611 30.0067C32.4952 32.4141 30.0877 34.8386 27.2677 36.9335C25.8564 37.9761 24.3353 38.9332 22.6482 39.673C20.9659 40.4128 19.0981 40.9207 17.1521 40.9988H17.1301C16.1193 41.0403 15.2648 40.2517 15.2232 39.2408C15.1817 38.23 15.9704 37.3755 16.9812 37.3339C17.0374 37.3315 17.096 37.3339 17.1521 37.3364Z" fill="black"/>
<path d="M12.3477 11.7218L12.4624 8.40117C12.4649 8.32792 12.4649 8.2742 12.4722 8.18142L12.4917 7.9104C12.5088 7.72972 12.5137 7.55149 12.5454 7.37081C12.6089 7.00945 12.6724 6.65053 12.7945 6.29894C12.8921 5.9449 13.0533 5.60797 13.2071 5.27591L13.4781 4.79735C13.566 4.63621 13.6832 4.49703 13.7858 4.3481C14.213 3.76944 14.7136 3.26402 15.2581 2.85872C15.7976 2.44609 16.369 2.10426 16.955 1.83568C17.2455 1.68919 17.5434 1.5842 17.8388 1.46212C18.1391 1.36445 18.4346 1.25214 18.7373 1.17645L19.189 1.05437L19.6432 0.954264C19.797 0.91764 19.9386 0.895667 20.0802 0.871251L20.5051 0.800442C22.7684 0.41711 25.0172 0.219339 27.2634 0.102142C29.5097 -0.0126131 31.7511 -0.0272628 33.9901 0.0411022C36.2266 0.109467 38.4606 0.253523 40.6849 0.500125C42.9068 0.751611 45.1262 1.09099 47.3066 1.6721C47.8486 1.81615 48.398 1.96997 48.9303 2.17751C49.465 2.37528 49.9875 2.61211 50.488 2.88802C51.4866 3.43738 52.4242 4.16986 53.0688 5.13429C53.7305 6.08652 54.0039 7.27558 53.938 8.3914L53.8232 11.712L53.7085 8.3914C53.706 8.25222 53.6938 8.1155 53.6816 7.98121C53.667 7.84692 53.6645 7.71019 53.6401 7.57834C53.5864 7.31465 53.5424 7.04851 53.4472 6.79703C53.2788 6.29161 53.0322 5.81306 52.6977 5.40043C52.0482 4.56051 51.1423 3.94523 50.1755 3.49842C49.692 3.27135 49.1866 3.08579 48.6714 2.93441C48.1587 2.77326 47.6313 2.66339 47.0942 2.56084C44.9578 2.14577 42.7652 1.96265 40.5751 1.86743C38.3825 1.77709 36.1875 1.78685 33.9949 1.87231C31.8048 1.95532 29.6171 2.1238 27.4514 2.38261C25.2857 2.64386 23.1347 2.98812 21.0569 3.48865L20.6662 3.58143C20.5344 3.61317 20.405 3.64247 20.2926 3.6791L19.9411 3.78165L19.5968 3.90128C19.3648 3.97453 19.15 4.07952 18.9278 4.16498C18.7178 4.27241 18.4981 4.36275 18.3027 4.48239C17.895 4.70213 17.5312 4.96582 17.2113 5.24905C16.8842 5.52739 16.6254 5.8448 16.4203 6.17198C16.3739 6.25743 16.3104 6.33312 16.2762 6.42102C16.2371 6.50647 16.1981 6.59193 16.1541 6.67495C16.1175 6.7604 16.0955 6.85075 16.0613 6.93864C16.0247 7.0241 16.0076 7.11443 15.9881 7.20722C15.9368 7.38301 15.9271 7.5759 15.9026 7.76146C15.8929 7.85425 15.9026 7.95435 15.8978 8.04957L15.8953 8.19363C15.8929 8.24002 15.9002 8.32548 15.9002 8.38896L16.015 11.7095C16.0491 12.7204 15.2581 13.57 14.2472 13.6042C13.2364 13.6384 12.3867 12.8473 12.3525 11.8365C12.3477 11.8072 12.3477 11.7608 12.3477 11.7218Z" fill="black"/>
<path d="M18.921 55.11C18.327 55.11 17.7513 55.0257 17.194 54.857C16.644 54.6883 16.2077 54.4647 15.885 54.186L16.38 53.075C16.6953 53.3243 17.0803 53.5297 17.535 53.691C17.997 53.845 18.459 53.922 18.921 53.922C19.493 53.922 19.9183 53.8303 20.197 53.647C20.483 53.4637 20.626 53.2217 20.626 52.921C20.626 52.701 20.5453 52.5213 20.384 52.382C20.23 52.2353 20.032 52.1217 19.79 52.041C19.548 51.9603 19.218 51.8687 18.8 51.766C18.2133 51.6267 17.7367 51.4873 17.37 51.348C17.0107 51.2087 16.699 50.9923 16.435 50.699C16.1783 50.3983 16.05 49.995 16.05 49.489C16.05 49.0637 16.1637 48.6787 16.391 48.334C16.6257 47.982 16.974 47.7033 17.436 47.498C17.9053 47.2927 18.4773 47.19 19.152 47.19C19.6213 47.19 20.0833 47.2487 20.538 47.366C20.9927 47.4833 21.385 47.652 21.715 47.872L21.264 48.983C20.9267 48.785 20.5747 48.6347 20.208 48.532C19.8413 48.4293 19.4857 48.378 19.141 48.378C18.5763 48.378 18.1547 48.4733 17.876 48.664C17.6047 48.8547 17.469 49.1077 17.469 49.423C17.469 49.643 17.546 49.8227 17.7 49.962C17.8613 50.1013 18.063 50.2113 18.305 50.292C18.547 50.3727 18.877 50.4643 19.295 50.567C19.867 50.699 20.3363 50.8383 20.703 50.985C21.0697 51.1243 21.3813 51.3407 21.638 51.634C21.902 51.9273 22.034 52.3233 22.034 52.822C22.034 53.2473 21.9167 53.6323 21.682 53.977C21.4547 54.3217 21.1063 54.5967 20.637 54.802C20.1677 55.0073 19.5957 55.11 18.921 55.11ZM26.114 53.911C26.752 53.911 27.2836 53.6983 27.709 53.273L28.435 54.12C28.1783 54.4353 27.8483 54.6737 27.445 54.835C27.0416 54.9963 26.587 55.077 26.081 55.077C25.4356 55.077 24.8673 54.9487 24.376 54.692C23.8846 54.4353 23.5033 54.0797 23.232 53.625C22.968 53.163 22.836 52.6423 22.836 52.063C22.836 51.491 22.9643 50.9777 23.221 50.523C23.485 50.061 23.8443 49.7017 24.299 49.445C24.761 49.1883 25.2816 49.06 25.861 49.06C26.411 49.06 26.9096 49.181 27.357 49.423C27.8116 49.6577 28.171 49.9987 28.435 50.446C28.699 50.886 28.831 51.403 28.831 51.997L24.332 52.877C24.4713 53.2143 24.695 53.471 25.003 53.647C25.311 53.823 25.6813 53.911 26.114 53.911ZM25.861 50.16C25.355 50.16 24.9443 50.325 24.629 50.655C24.321 50.985 24.167 51.4287 24.167 51.986V51.997L27.489 51.359C27.3936 50.9997 27.1993 50.71 26.906 50.49C26.62 50.27 26.2716 50.16 25.861 50.16ZM35.894 49.126V55H34.585V54.241C34.3577 54.5197 34.0753 54.7287 33.738 54.868C33.408 55.0073 33.0413 55.077 32.638 55.077C32.066 55.077 31.5527 54.9523 31.098 54.703C30.6507 54.4537 30.2987 54.1017 30.042 53.647C29.7927 53.1923 29.668 52.6643 29.668 52.063C29.668 51.4617 29.7927 50.9373 30.042 50.49C30.2987 50.0353 30.6507 49.6833 31.098 49.434C31.5527 49.1847 32.066 49.06 32.638 49.06C33.0193 49.06 33.3677 49.126 33.683 49.258C34.0057 49.39 34.2843 49.5843 34.519 49.841V49.126H35.894ZM32.792 53.9C33.298 53.9 33.716 53.7313 34.046 53.394C34.376 53.0567 34.541 52.613 34.541 52.063C34.541 51.513 34.376 51.0693 34.046 50.732C33.716 50.3947 33.298 50.226 32.792 50.226C32.286 50.226 31.868 50.3947 31.538 50.732C31.2153 51.0693 31.054 51.513 31.054 52.063C31.054 52.613 31.2153 53.0567 31.538 53.394C31.868 53.7313 32.286 53.9 32.792 53.9ZM40.993 54.681C40.8317 54.813 40.6337 54.912 40.399 54.978C40.1717 55.044 39.9297 55.077 39.673 55.077C39.0277 55.077 38.529 54.9083 38.177 54.571C37.825 54.2337 37.649 53.7423 37.649 53.097V47.828H39.024V49.17H40.597V50.27H39.024V53.064C39.024 53.35 39.0937 53.57 39.233 53.724C39.3797 53.8707 39.5813 53.944 39.838 53.944C40.146 53.944 40.4027 53.8633 40.608 53.702L40.993 54.681ZM44.0655 55.077C43.4569 55.077 42.9802 54.912 42.6355 54.582C42.2982 54.2447 42.1295 53.7717 42.1295 53.163V46.838H43.5045V53.064C43.5045 53.6507 43.7795 53.944 44.3295 53.944C44.5129 53.944 44.6779 53.9073 44.8245 53.834L44.8905 54.934C44.6339 55.0293 44.3589 55.077 44.0655 55.077ZM51.5119 49.126V54.109C51.5119 56.177 50.4962 57.211 48.4649 57.211C47.9295 57.211 47.4162 57.1377 46.9249 56.991C46.4409 56.8517 46.0412 56.6463 45.7259 56.375L46.3419 55.341C46.5912 55.5537 46.8955 55.7223 47.2549 55.847C47.6142 55.9717 47.9919 56.034 48.3879 56.034C48.9892 56.034 49.4292 55.8873 49.7079 55.594C49.9939 55.308 50.1369 54.8643 50.1369 54.263V53.988C49.9169 54.23 49.6492 54.417 49.3339 54.549C49.0185 54.6737 48.6775 54.736 48.3109 54.736C47.5262 54.736 46.9065 54.5197 46.4519 54.087C46.0045 53.6543 45.7809 53.0053 45.7809 52.14V49.126H47.1559V51.964C47.1559 52.4847 47.2732 52.877 47.5079 53.141C47.7499 53.3977 48.0909 53.526 48.5309 53.526C49.0222 53.526 49.4109 53.3757 49.6969 53.075C49.9902 52.7743 50.1369 52.338 50.1369 51.766V49.126H51.5119Z" fill="black"/>
</svg>
