<svg width="1209" height="712" viewBox="0 0 1209 712" fill="none" xmlns="http://www.w3.org/2000/svg">
<g style="mix-blend-mode:multiply" filter="url(#filter0_d_596_4789)">
<path d="M378.375 344.442C378.375 304.046 413.617 272.696 453.737 277.401L526.44 285.928C533.291 286.731 540.19 286.497 546.982 285.317C573.821 280.658 648.139 268.612 699.77 268.501C752.482 268.387 828.422 280.612 855.668 285.316C862.497 286.495 869.437 286.721 876.322 285.897L945.642 277.601C985.815 272.794 1021.16 304.164 1021.16 344.623V502.99C1021.16 540.269 990.942 570.49 953.663 570.49H445.875C408.596 570.49 378.375 540.269 378.375 502.99V344.442Z" stroke="#1D1D1B" stroke-opacity="0.7"/>
<path d="M377.985 440.165C377.985 440.165 444.367 430.894 516.766 445.526C589.165 460.158 625.268 445.526 691.65 445.526C758.032 445.526 803.451 461.562 866.533 445.526C929.615 429.49 1020.45 440.165 1020.45 440.165" stroke="#1D1D1B" stroke-opacity="0.7"/>
<g filter="url(#filter1_b_596_4789)">
<rect x="371.027" y="434.582" width="84.8516" height="149.02" rx="24" stroke="#1D1D1B" stroke-opacity="0.7" stroke-width="2"/>
</g>
<g filter="url(#filter2_b_596_4789)">
<rect x="943.337" y="434.766" width="84.8516" height="149.02" rx="24" stroke="#1D1D1B" stroke-opacity="0.7" stroke-width="2"/>
</g>
<ellipse cx="682.941" cy="343.699" rx="6.51387" ry="5.69886" fill="#E6E6E6" fill-opacity="0.41"/>
<path d="M688.955 343.699C688.955 346.509 686.327 348.898 682.941 348.898C679.554 348.898 676.927 346.509 676.927 343.699C676.927 340.888 679.554 338.5 682.941 338.5C686.327 338.5 688.955 340.888 688.955 343.699Z" stroke="#1D1D1B" stroke-opacity="0.7"/>
<ellipse cx="716.184" cy="343.699" rx="6.51387" ry="5.69886" fill="#E6E6E6" fill-opacity="0.41"/>
<path d="M722.198 343.699C722.198 346.509 719.57 348.898 716.184 348.898C712.798 348.898 710.17 346.509 710.17 343.699C710.17 340.888 712.798 338.5 716.184 338.5C719.57 338.5 722.198 340.888 722.198 343.699Z" stroke="#1D1D1B" stroke-opacity="0.7"/>
<ellipse cx="716.184" cy="384.541" rx="6.51387" ry="5.69886" fill="#E6E6E6" fill-opacity="0.41"/>
<path d="M722.198 384.541C722.198 387.351 719.57 389.74 716.184 389.74C712.798 389.74 710.17 387.351 710.17 384.541C710.17 381.73 712.798 379.342 716.184 379.342C719.57 379.342 722.198 381.73 722.198 384.541Z" stroke="#1D1D1B" stroke-opacity="0.7"/>
<ellipse cx="682.941" cy="384.541" rx="6.51387" ry="5.69886" fill="#E6E6E6" fill-opacity="0.41"/>
<path d="M688.955 384.541C688.955 387.351 686.327 389.74 682.941 389.74C679.554 389.74 676.927 387.351 676.927 384.541C676.927 381.73 679.554 379.342 682.941 379.342C686.327 379.342 688.955 381.73 688.955 384.541Z" stroke="#1D1D1B" stroke-opacity="0.7"/>
<ellipse cx="490.621" cy="343.699" rx="6.51387" ry="5.69886" fill="#E6E6E6" fill-opacity="0.41"/>
<path d="M496.635 343.699C496.635 346.509 494.008 348.898 490.621 348.898C487.235 348.898 484.607 346.509 484.607 343.699C484.607 340.888 487.235 338.5 490.621 338.5C494.008 338.5 496.635 340.888 496.635 343.699Z" stroke="#1D1D1B" stroke-opacity="0.7"/>
<ellipse cx="523.864" cy="343.699" rx="6.51387" ry="5.69886" fill="#E6E6E6" fill-opacity="0.41"/>
<path d="M529.878 343.699C529.878 346.509 527.251 348.898 523.864 348.898C520.478 348.898 517.851 346.509 517.851 343.699C517.851 340.888 520.478 338.5 523.864 338.5C527.251 338.5 529.878 340.888 529.878 343.699Z" stroke="#1D1D1B" stroke-opacity="0.7"/>
<ellipse cx="523.864" cy="384.541" rx="6.51387" ry="5.69886" fill="#E6E6E6" fill-opacity="0.41"/>
<path d="M529.878 384.541C529.878 387.351 527.251 389.74 523.864 389.74C520.478 389.74 517.851 387.351 517.851 384.541C517.851 381.73 520.478 379.342 523.864 379.342C527.251 379.342 529.878 381.73 529.878 384.541Z" stroke="#1D1D1B" stroke-opacity="0.7"/>
<ellipse cx="490.621" cy="384.541" rx="6.51387" ry="5.69886" fill="#E6E6E6" fill-opacity="0.41"/>
<path d="M496.635 384.541C496.635 387.351 494.008 389.74 490.621 389.74C487.235 389.74 484.607 387.351 484.607 384.541C484.607 381.73 487.235 379.342 490.621 379.342C494.008 379.342 496.635 381.73 496.635 384.541Z" stroke="#1D1D1B" stroke-opacity="0.7"/>
<ellipse cx="854.548" cy="343.699" rx="6.51387" ry="5.69886" fill="#E6E6E6" fill-opacity="0.41"/>
<path d="M860.562 343.699C860.562 346.509 857.934 348.898 854.548 348.898C851.162 348.898 848.534 346.509 848.534 343.699C848.534 340.888 851.162 338.5 854.548 338.5C857.934 338.5 860.562 340.888 860.562 343.699Z" stroke="#1D1D1B" stroke-opacity="0.7"/>
<ellipse cx="887.341" cy="343.699" rx="6.51387" ry="5.69886" fill="#E6E6E6" fill-opacity="0.41"/>
<path d="M893.355 343.699C893.355 346.509 890.727 348.898 887.341 348.898C883.955 348.898 881.327 346.509 881.327 343.699C881.327 340.888 883.955 338.5 887.341 338.5C890.727 338.5 893.355 340.888 893.355 343.699Z" stroke="#1D1D1B" stroke-opacity="0.7"/>
<ellipse cx="887.341" cy="384.541" rx="6.51387" ry="5.69886" fill="#E6E6E6" fill-opacity="0.41"/>
<path d="M893.355 384.541C893.355 387.351 890.727 389.74 887.341 389.74C883.955 389.74 881.327 387.351 881.327 384.541C881.327 381.73 883.955 379.342 887.341 379.342C890.727 379.342 893.355 381.73 893.355 384.541Z" stroke="#1D1D1B" stroke-opacity="0.7"/>
<ellipse cx="854.548" cy="384.541" rx="6.51387" ry="5.69886" fill="#E6E6E6" fill-opacity="0.41"/>
<path d="M860.562 384.541C860.562 387.351 857.934 389.74 854.548 389.74C851.162 389.74 848.534 387.351 848.534 384.541C848.534 381.73 851.162 379.342 854.548 379.342C857.934 379.342 860.562 381.73 860.562 384.541Z" stroke="#1D1D1B" stroke-opacity="0.7"/>
<rect x="405.841" y="584.75" width="14.199" height="12.2973" stroke="#1D1D1B" stroke-opacity="0.7"/>
<rect x="978.774" y="585.203" width="14.199" height="12.2973" stroke="#1D1D1B" stroke-opacity="0.7"/>
</g>
<g filter="url(#filter3_f_596_4789)">
<path d="M322.153 322.35C331.488 314.458 341.653 309.378 350.522 307.527C359.413 305.671 366.87 307.078 370.989 311.951C375.109 316.824 375.255 324.411 371.945 332.869C368.644 341.307 361.943 350.484 352.607 358.376C343.271 366.268 333.107 371.348 324.238 373.199C315.347 375.055 307.89 373.647 303.77 368.775C299.651 363.902 299.505 356.315 302.814 347.856C306.116 339.419 312.817 330.242 322.153 322.35Z" stroke="#1D1D1B" stroke-opacity="0.7"/>
</g>
<g filter="url(#filter4_f_596_4789)">
<path d="M583.409 359.227C592.745 351.335 602.91 346.255 611.779 344.404C620.67 342.548 628.127 343.955 632.246 348.828C636.365 353.701 636.512 361.288 633.202 369.746C629.901 378.184 623.199 387.361 613.864 395.253C604.528 403.145 594.364 408.225 585.494 410.076C576.603 411.931 569.146 410.524 565.027 405.652C560.908 400.779 560.762 393.192 564.071 384.733C567.373 376.296 574.074 367.119 583.409 359.227Z" stroke="#1D1D1B" stroke-opacity="0.7"/>
</g>
<g filter="url(#filter5_f_596_4789)">
<path d="M856.313 316.914C865.648 309.023 875.813 303.942 884.682 302.091C893.573 300.236 901.03 301.643 905.149 306.515C909.269 311.388 909.415 318.975 906.105 327.434C902.804 335.871 896.103 345.048 886.767 352.94C877.432 360.832 867.267 365.912 858.398 367.763C849.507 369.619 842.05 368.212 837.93 363.339C833.811 358.466 833.665 350.879 836.975 342.421C840.276 333.984 846.977 324.806 856.313 316.914Z" stroke="#1D1D1B" stroke-opacity="0.7"/>
</g>
<defs>
<filter id="filter0_d_596_4789" x="364.027" y="268" width="711.161" height="394" filterUnits="userSpaceOnUse" color-interpolation-filters="sRGB">
<feFlood flood-opacity="0" result="BackgroundImageFix"/>
<feColorMatrix in="SourceAlpha" type="matrix" values="0 0 0 0 0 0 0 0 0 0 0 0 0 0 0 0 0 0 127 0" result="hardAlpha"/>
<feOffset dx="20" dy="38"/>
<feGaussianBlur stdDeviation="13"/>
<feComposite in2="hardAlpha" operator="out"/>
<feColorMatrix type="matrix" values="0 0 0 0 0 0 0 0 0 0 0 0 0 0 0 0 0 0 0.25 0"/>
<feBlend mode="normal" in2="BackgroundImageFix" result="effect1_dropShadow_596_4789"/>
<feBlend mode="normal" in="SourceGraphic" in2="effect1_dropShadow_596_4789" result="shape"/>
</filter>
<filter id="filter1_b_596_4789" x="357.027" y="420.582" width="112.852" height="177.02" filterUnits="userSpaceOnUse" color-interpolation-filters="sRGB">
<feFlood flood-opacity="0" result="BackgroundImageFix"/>
<feGaussianBlur in="BackgroundImageFix" stdDeviation="6.5"/>
<feComposite in2="SourceAlpha" operator="in" result="effect1_backgroundBlur_596_4789"/>
<feBlend mode="normal" in="SourceGraphic" in2="effect1_backgroundBlur_596_4789" result="shape"/>
</filter>
<filter id="filter2_b_596_4789" x="929.337" y="420.766" width="112.852" height="177.02" filterUnits="userSpaceOnUse" color-interpolation-filters="sRGB">
<feFlood flood-opacity="0" result="BackgroundImageFix"/>
<feGaussianBlur in="BackgroundImageFix" stdDeviation="6.5"/>
<feComposite in2="SourceAlpha" operator="in" result="effect1_backgroundBlur_596_4789"/>
<feBlend mode="normal" in="SourceGraphic" in2="effect1_backgroundBlur_596_4789" result="shape"/>
</filter>
<filter id="filter3_f_596_4789" x="-0.00878906" y="6.24023" width="674.777" height="668.244" filterUnits="userSpaceOnUse" color-interpolation-filters="sRGB">
<feFlood flood-opacity="0" result="BackgroundImageFix"/>
<feBlend mode="normal" in="SourceGraphic" in2="BackgroundImageFix" result="shape"/>
<feGaussianBlur stdDeviation="150" result="effect1_foregroundBlur_596_4789"/>
</filter>
<filter id="filter4_f_596_4789" x="261.248" y="43.1172" width="674.777" height="668.244" filterUnits="userSpaceOnUse" color-interpolation-filters="sRGB">
<feFlood flood-opacity="0" result="BackgroundImageFix"/>
<feBlend mode="normal" in="SourceGraphic" in2="BackgroundImageFix" result="shape"/>
<feGaussianBlur stdDeviation="150" result="effect1_foregroundBlur_596_4789"/>
</filter>
<filter id="filter5_f_596_4789" x="534.151" y="0.804688" width="674.777" height="668.244" filterUnits="userSpaceOnUse" color-interpolation-filters="sRGB">
<feFlood flood-opacity="0" result="BackgroundImageFix"/>
<feBlend mode="normal" in="SourceGraphic" in2="BackgroundImageFix" result="shape"/>
<feGaussianBlur stdDeviation="150" result="effect1_foregroundBlur_596_4789"/>
</filter>
</defs>
</svg>
