<svg width="46" height="37" viewBox="0 0 46 37" fill="none" xmlns="http://www.w3.org/2000/svg">
<path d="M8.74596 37C8.16899 37 7.68536 36.803 7.29506 36.409C6.90476 36.015 6.70961 35.5269 6.70961 34.9444V32.8889C5.01266 32.8889 3.57025 32.2894 2.38239 31.0903C1.19452 29.8912 0.600586 28.4352 0.600586 26.7222V16.4444C0.600586 14.7315 1.19452 13.2755 2.38239 12.0764C3.57025 10.8773 5.01266 10.2778 6.70961 10.2778V6.16667C6.70961 4.4537 7.30355 2.99769 8.49141 1.79861C9.67928 0.599537 11.1217 0 12.8186 0H33.1821C34.879 0 36.3214 0.599537 37.5093 1.79861C38.6972 2.99769 39.2911 4.4537 39.2911 6.16667V10.2778C40.9881 10.2778 42.4305 10.8773 43.6183 12.0764C44.8062 13.2755 45.4001 14.7315 45.4001 16.4444V26.7222C45.4001 28.4352 44.8062 29.8912 43.6183 31.0903C42.4305 32.2894 40.9881 32.8889 39.2911 32.8889V34.9444C39.2911 35.5269 39.0959 36.015 38.7057 36.409C38.3153 36.803 37.8317 37 37.2548 37C36.6778 37 36.1942 36.803 35.8039 36.409C35.4136 36.015 35.2184 35.5269 35.2184 34.9444V32.8889H10.7823V34.9444C10.7823 35.5269 10.5872 36.015 10.1969 36.409C9.80655 36.803 9.32292 37 8.74596 37ZM6.70961 28.7778H39.2911C39.8681 28.7778 40.3517 28.5808 40.742 28.1868C41.1323 27.7928 41.3274 27.3046 41.3274 26.7222V16.4444C41.3274 15.862 41.1323 15.3738 40.742 14.9799C40.3517 14.5859 39.8681 14.3889 39.2911 14.3889C38.7141 14.3889 38.2305 14.5859 37.8402 14.9799C37.4499 15.3738 37.2548 15.862 37.2548 16.4444V24.6667H8.74596V16.4444C8.74596 15.862 8.55081 15.3738 8.16051 14.9799C7.77021 14.5859 7.28658 14.3889 6.70961 14.3889C6.13265 14.3889 5.64902 14.5859 5.25872 14.9799C4.86842 15.3738 4.67327 15.862 4.67327 16.4444V26.7222C4.67327 27.3046 4.86842 27.7928 5.25872 28.1868C5.64902 28.5808 6.13265 28.7778 6.70961 28.7778ZM12.8186 20.5556H33.1821V16.4444C33.1821 15.5194 33.3687 14.6801 33.7421 13.9264C34.1154 13.1727 34.6075 12.5046 35.2184 11.9222V6.16667C35.2184 5.58426 35.0233 5.09607 34.633 4.70208C34.2427 4.3081 33.759 4.11111 33.1821 4.11111H12.8186C12.2417 4.11111 11.758 4.3081 11.3677 4.70208C10.9774 5.09607 10.7823 5.58426 10.7823 6.16667V11.9222C11.3932 12.5046 11.8853 13.1727 12.2586 13.9264C12.632 14.6801 12.8186 15.5194 12.8186 16.4444V20.5556Z" fill="#F07162"/>
</svg>
