<svg width="1440" height="529" viewBox="0 0 1440 529" fill="none" xmlns="http://www.w3.org/2000/svg">
<path d="M81.6202 253.093C47.9829 250.146 13.1914 233.137 0.000281872 225C0.000129731 261.846 9.92229 303.246 0.000213468 348.433C7.3783e-10 399.096 0.000281872 445.153 0 458.049C-0.000423403 477.42 180.553 489.826 293.09 489.826C313.683 489.826 447.674 512.394 513.217 517C513.217 517 575.668 433.178 570.721 386.2C565.774 339.221 513.217 304.677 513.217 304.677L374.092 293.623C310.816 280.113 178.08 253.093 153.346 253.093C122.43 253.093 123.667 256.778 81.6202 253.093Z" stroke="black"/>
<path d="M534.053 318.288L596.842 322.441L652.886 285.986H681.945L695.956 295.215C688.691 304.752 672.916 325.21 667.934 330.748C662.953 336.285 677.275 346.591 685.059 351.052C690.767 352.59 708.929 351.052 723.459 351.052L740.065 333.055C748.194 333.209 766.114 334.347 772.757 337.669C781.059 341.823 818.422 362.588 829.838 376.432C853.432 405.042 823.092 433.652 813.233 449.803H802.854L780.54 463.185C780.195 461.34 776.597 458.756 764.973 463.185C753.809 467.44 753.878 471.468 755.433 473.143C755.501 473.208 755.568 473.273 755.632 473.338C755.564 473.277 755.497 473.212 755.433 473.143C750.934 468.815 738.59 461.786 723.459 466.877C708.099 472.045 702.529 479.49 701.664 482.567C685.924 484.412 650.706 486.997 635.761 482.567C620.816 478.137 598.745 462.878 589.577 455.802H552.734C552.734 455.802 575.332 410.549 570.377 381.046C565.799 353.784 534.053 318.288 534.053 318.288Z" fill="#F9B59D" fill-opacity="0.21" stroke="black"/>
<path d="M720.802 288.252C709.287 287.883 700.011 293.329 696.812 296.098L666.959 333.018C670.065 343.144 674.375 347.258 686.151 352.402H724.534L741.06 334.864C744.855 330.101 777.31 339.018 781.042 341.787C797.568 350.094 813.373 359.17 817.293 363.016C825.289 370.862 833.063 373.658 838.083 383.323C842.576 391.971 842.348 407.321 842.348 407.321C842.348 407.321 930.309 396.706 932.975 394.856C935.64 393.006 945.769 383.78 938.306 333.937C930.842 284.094 879.239 276.156 864.738 277.633C850.238 279.11 813.916 294.252 797.568 301.636L784.774 296.098C759.611 283.176 744.08 286.714 739.46 290.098C738.039 289.637 732.317 288.621 720.802 288.252Z" fill="#A06663" fill-opacity="0.34" stroke="black"/>
<path d="M624.311 489.924C619.648 485.104 615.781 475.618 615.781 475.618C631.197 484.069 639.695 485.735 654.697 485.771L702.676 483.002C711.811 471.228 719.342 467.719 736.261 465.926C745.883 467.004 757.585 473.772 757.585 473.772C756.277 470.587 767.618 457.638 783.707 463.157C783.707 463.157 790.637 471.464 789.038 475.618C787.439 479.771 771.723 485.927 770.913 495.924C770.378 502.52 781.575 507 776.777 512.077C771.979 517.153 733.063 527.307 733.063 527.307C733.063 527.307 728.265 530.076 709.073 524.537C689.882 518.999 667.492 512.077 665.359 512.077C663.227 512.077 657.49 506.158 652.032 502.847C641.963 496.738 632.205 498.085 624.311 489.924Z" fill="#A06663" fill-opacity="0.34" stroke="black"/>
<path d="M836.027 416.4L832 428.259L854.439 447.036C861.151 448.518 877.108 450.593 887.234 447.036M887.234 447.036C899.892 442.588 936.714 407.506 941.893 384.776C947.071 362.046 934.988 314.116 926.933 306.21C921.509 300.885 898.741 277.551 857.891 277.551L1089.18 206.396C1121.79 201.62 1195.53 182.462 1199.57 179.214C1249.59 139.043 1434.13 56.4887 1437.59 3.09834C1439.55 -27.0562 1444.43 277.551 1430.18 290.806C1410.79 308.856 1321.82 348.869 1287.68 363.034L1083.43 412.447L887.234 447.036Z" stroke="black"/>
</svg>
