<svg width="991" height="432" viewBox="0 0 991 432" fill="none" xmlns="http://www.w3.org/2000/svg">
<path d="M50.3158 200.668C29.5796 198.184 8.13199 183.855 0.000173763 177C7.99745e-05 208.041 6.11672 242.919 0.000131595 280.988C4.54844e-10 323.67 0.000173763 362.471 0 373.335C-0.000261012 389.655 111.304 400.107 180.679 400.107C193.374 400.107 275.974 419.12 316.379 423C316.379 423 354.877 352.383 351.828 312.805C348.779 273.228 316.379 244.125 316.379 244.125L230.614 234.813C191.607 223.431 109.779 200.668 94.5323 200.668C75.4733 200.668 76.2359 203.772 50.3158 200.668Z" stroke="black"/>
<path d="M322.837 255.716L375.618 259.207L422.729 228.562H447.156L458.934 236.321C452.827 244.337 439.566 261.534 435.379 266.189C431.191 270.844 443.231 279.507 449.774 283.257C454.572 284.55 469.839 283.257 482.053 283.257L496.012 268.129C502.846 268.258 517.91 269.215 523.493 272.008C530.472 275.499 561.879 292.954 571.476 304.592C591.309 328.642 565.805 352.692 557.517 366.268H548.793L530.036 377.517C529.745 375.966 526.721 373.793 516.95 377.517C507.565 381.094 507.623 384.48 508.931 385.887C508.988 385.943 509.044 385.997 509.098 386.051C509.041 386 508.985 385.945 508.931 385.887C505.149 382.249 494.772 376.341 482.053 380.621C469.141 384.965 464.459 391.223 463.732 393.809C450.501 395.361 420.897 397.533 408.334 393.809C395.771 390.085 377.218 377.259 369.511 371.311H338.54C338.54 371.311 357.536 333.271 353.372 308.471C349.523 285.554 322.837 255.716 322.837 255.716Z" fill="#F9B59D" fill-opacity="0.21" stroke="black"/>
<path d="M477.718 229.468C468.038 229.157 460.241 233.735 457.552 236.063L432.457 267.098C435.068 275.61 438.691 279.068 448.59 283.392H480.855L494.747 268.65C497.937 264.646 525.219 272.142 528.356 274.469C542.248 281.452 555.533 289.082 558.828 292.315C565.55 298.91 572.085 301.26 576.305 309.385C580.081 316.654 579.89 329.557 579.89 329.557C579.89 329.557 653.831 320.634 656.072 319.079C658.312 317.524 666.827 309.769 660.553 267.87C654.279 225.972 610.901 219.3 598.712 220.541C586.523 221.783 555.99 234.511 542.248 240.718L531.493 236.063C510.341 225.2 497.286 228.175 493.402 231.02C492.207 230.632 487.397 229.778 477.718 229.468Z" fill="#A06663" fill-opacity="0.34" stroke="black"/>
<path d="M396.607 398.997C392.687 394.945 389.437 386.971 389.437 386.971C402.395 394.075 409.539 395.475 422.15 395.506L462.481 393.178C470.16 383.28 476.491 380.331 490.713 378.824C498.801 379.73 508.638 385.419 508.638 385.419C507.538 382.742 517.071 371.857 530.596 376.496C530.596 376.496 536.422 383.479 535.077 386.971C533.733 390.462 520.522 395.637 519.841 404.04C519.392 409.585 528.804 413.351 524.77 417.618C520.737 421.886 488.024 430.421 488.024 430.421C488.024 430.421 483.991 432.748 467.859 428.093C451.726 423.438 432.905 417.618 431.112 417.618C429.32 417.618 424.497 412.643 419.909 409.86C411.445 404.725 403.243 405.857 396.607 398.997Z" fill="#A06663" fill-opacity="0.34" stroke="black"/>
<path d="M590.676 329.24L588 338.611L602.91 353.448C607.37 354.619 617.973 356.259 624.701 353.448M624.701 353.448C633.112 349.934 657.58 322.212 661.021 304.251C664.461 286.291 656.433 248.417 651.081 242.17C647.476 237.963 632.348 219.524 605.204 219.524L758.891 163.3C780.555 159.525 829.554 144.387 832.242 141.821C865.477 110.079 988.097 44.846 990.399 2.65806C991.699 -21.1694 994.941 219.524 985.477 229.999C972.591 244.261 913.471 275.879 890.787 287.072L755.068 326.116L624.701 353.448Z" stroke="black"/>
</svg>
