<svg width="374" height="164" viewBox="0 0 374 164" fill="none" xmlns="http://www.w3.org/2000/svg">
<path d="M18.9065 76.0261C11.1148 75.0929 3.05565 69.7086 6.52927e-05 67.1328C3.0051e-05 78.7968 2.2984 91.9025 4.94477e-05 106.207L0 140.907C-9.80771e-05 147.039 41.8233 150.967 67.8914 150.967C72.6615 150.967 103.699 158.111 118.882 159.569C118.882 159.569 133.348 133.034 132.202 118.163C131.056 103.291 118.882 92.3556 118.882 92.3556L86.6548 88.8564C71.9975 84.5796 41.2504 76.0261 35.5212 76.0261C28.3596 76.0261 28.6462 77.1925 18.9065 76.0261Z" stroke="black" stroke-opacity="0.5"/>
<path d="M121.308 96.7108L141.141 98.0226L158.843 86.5078H168.022L172.447 89.423C170.152 92.4353 165.17 98.8972 163.596 100.646C162.022 102.395 166.546 105.651 169.005 107.06C170.808 107.545 176.545 107.06 181.134 107.06L186.379 101.375C188.947 101.424 194.608 101.783 196.706 102.833C199.328 104.144 211.129 110.704 214.735 115.076C222.188 124.113 212.605 133.15 209.49 138.252H206.212L199.164 142.479C199.055 141.896 197.918 141.079 194.247 142.479C190.721 143.823 190.742 145.095 191.234 145.624C191.255 145.644 191.276 145.665 191.297 145.685C191.275 145.666 191.254 145.646 191.234 145.624C189.813 144.257 185.914 142.037 181.134 143.645C176.283 145.277 174.523 147.629 174.25 148.6C169.278 149.183 158.154 150 153.434 148.6C148.713 147.201 141.742 142.381 138.846 140.147H127.208C127.208 140.147 134.346 125.853 132.781 116.534C131.335 107.923 121.308 96.7108 121.308 96.7108Z" fill="#F9B59D" fill-opacity="0.21"/>
<path d="M121.308 96.7108L141.141 98.0226L158.843 86.5078H168.022L172.447 89.423C170.152 92.4353 165.17 98.8972 163.596 100.646C162.022 102.395 166.546 105.651 169.005 107.06C170.808 107.545 176.545 107.06 181.134 107.06L186.379 101.375C188.947 101.424 194.608 101.783 196.706 102.833C199.328 104.144 211.129 110.704 214.735 115.076C222.188 124.113 212.605 133.15 209.49 138.252H206.212L199.164 142.479C199.055 141.896 197.918 141.079 194.247 142.479C190.575 143.878 190.75 145.199 191.297 145.685C189.931 144.325 185.986 142.012 181.134 143.645C176.283 145.277 174.523 147.629 174.25 148.6C169.278 149.183 158.154 150 153.434 148.6C148.713 147.201 141.742 142.381 138.846 140.147H127.208C127.208 140.147 134.346 125.853 132.781 116.534C131.335 107.923 121.308 96.7108 121.308 96.7108Z" stroke="black" stroke-opacity="0.5"/>
<path d="M179.506 86.8502C175.869 86.7336 172.939 88.4537 171.929 89.3283L162.499 100.99C163.48 104.188 164.841 105.488 168.561 107.113H180.685L185.905 101.573C187.103 100.069 197.355 102.885 198.534 103.76C203.754 106.384 208.746 109.251 209.984 110.465C212.51 112.944 214.965 113.827 216.551 116.88C217.97 119.611 217.898 124.46 217.898 124.46C217.898 124.46 245.682 121.107 246.524 120.522C247.366 119.938 250.565 117.024 248.208 101.28C245.85 85.5367 229.55 83.0296 224.97 83.496C220.39 83.9625 208.918 88.7453 203.754 91.0777L199.712 89.3283C191.765 85.2466 186.859 86.3643 185.4 87.4333C184.951 87.2876 183.143 86.9668 179.506 86.8502Z" fill="#A06663" fill-opacity="0.34" stroke="black" stroke-opacity="0.5"/>
<path d="M149.029 150.55C147.556 149.027 146.335 146.031 146.335 146.031C151.204 148.7 153.889 149.227 158.627 149.238L173.782 148.363C176.667 144.644 179.046 143.536 184.39 142.97C187.429 143.31 191.126 145.448 191.126 145.448C190.713 144.442 194.295 140.352 199.377 142.095C199.377 142.095 201.566 144.719 201.061 146.031C200.555 147.343 195.591 149.287 195.335 152.445C195.166 154.528 198.703 155.944 197.188 157.547C195.672 159.151 183.38 162.358 183.38 162.358C183.38 162.358 181.864 163.232 175.803 161.483C169.741 159.734 162.668 157.547 161.995 157.547C161.321 157.547 159.509 155.678 157.785 154.632C154.605 152.702 151.523 153.128 149.029 150.55Z" fill="#A06663" fill-opacity="0.34" stroke="black" stroke-opacity="0.5"/>
<path d="M221.951 124.338L220.945 127.86L226.548 133.435C228.224 133.875 232.208 134.491 234.736 133.435M234.736 133.435C237.897 132.114 247.09 121.698 248.383 114.949C249.676 108.2 246.659 93.9688 244.648 91.6214C243.294 90.0405 237.609 83.112 227.41 83.112L285.159 61.9852C293.299 60.567 311.711 54.8787 312.721 53.9143C325.209 41.9871 371.284 17.4754 372.149 1.62303C372.638 -7.3303 373.856 83.112 370.3 87.0479C365.458 92.4071 343.243 104.288 334.72 108.493L283.722 123.165L234.736 133.435Z" stroke="black" stroke-opacity="0.5"/>
</svg>
