<svg width="426" height="288" viewBox="0 0 426 288" fill="none" xmlns="http://www.w3.org/2000/svg">
<path d="M95.9701 234.869C93.3748 237.292 90.2813 239.2 86.8662 240.484C83.4511 241.769 79.7813 242.405 76.0664 242.356C72.3514 242.307 68.6641 241.574 65.2148 240.2C61.7656 238.825 58.622 236.835 55.9636 234.343C53.3052 231.852 51.184 228.907 49.7212 225.678C48.2583 222.449 47.4824 218.999 47.4378 215.524C47.3932 212.05 48.0807 208.618 49.4611 205.427C50.8415 202.235 52.8878 199.346 55.4831 196.923L75.7266 215.896L95.9701 234.869Z" fill="url(#paint0_linear_2201_3444)"/>
<path d="M200.193 100.076C214.394 113.387 218.357 131.617 216.249 151.566C214.142 171.519 205.966 193.126 195.98 213.088C185.997 233.044 174.22 251.325 164.937 264.62C160.296 271.267 156.279 276.665 153.424 280.402C151.996 282.27 150.858 283.722 150.078 284.707C149.718 285.161 149.434 285.516 149.232 285.767L75.3945 216.563L1.55652 147.36C1.82457 147.172 2.20466 146.907 2.69135 146.571C3.74603 145.844 5.30121 144.783 7.30138 143.451C11.3018 140.787 17.0819 137.042 24.1977 132.714C38.4309 124.059 58.0008 113.081 79.3572 103.785C100.719 94.4861 123.838 86.8834 145.175 84.9528C166.508 83.0226 185.991 86.766 200.193 100.076Z" fill="url(#paint1_linear_2201_3444)" stroke="black"/>
<path d="M202.144 100.518L307.618 52.6989L425.735 53.5835" stroke="black" stroke-width="2"/>
<defs>
<linearGradient id="paint0_linear_2201_3444" x1="45.9497" y1="249.749" x2="98.384" y2="196.837" gradientUnits="userSpaceOnUse">
<stop stop-color="#F0D4AC"/>
<stop offset="1" stop-color="#F0D4AC" stop-opacity="0"/>
</linearGradient>
<linearGradient id="paint1_linear_2201_3444" x1="209.656" y1="109.197" x2="82.7189" y2="225.311" gradientUnits="userSpaceOnUse">
<stop stop-color="#F9B498"/>
<stop offset="1" stop-color="#F9B498" stop-opacity="0"/>
</linearGradient>
</defs>
</svg>
