<svg width="47" height="45" viewBox="0 0 47 45" fill="none" xmlns="http://www.w3.org/2000/svg">
<path d="M21.1846 11.25V5.625C21.1846 4.05 21.7373 2.71875 22.8426 1.63125C23.9479 0.54375 25.301 0 26.9018 0H32.6191V5.625C32.6191 7.2 32.0664 8.53125 30.9611 9.61875C29.8557 10.7062 28.5027 11.25 26.9018 11.25H21.1846ZM8.60667 24.75C6.39601 24.75 4.50932 23.9812 2.94661 22.4437C1.3839 20.9062 0.602539 19.05 0.602539 16.875V9H8.60667C10.8173 9 12.704 9.76875 14.2667 11.3062C15.8295 12.8437 16.6108 14.7 16.6108 16.875V24.75H8.60667ZM32.6191 45C31.1326 45 29.7128 44.775 28.3597 44.325C27.0067 43.875 25.7774 43.2562 24.6721 42.4687L22.7854 44.325C22.3662 44.7375 21.8326 44.9437 21.1846 44.9437C20.5366 44.9437 20.003 44.7375 19.5838 44.325C19.1645 43.9125 18.9549 43.3875 18.9549 42.75C18.9549 42.1125 19.1645 41.5875 19.5838 41.175L21.4705 39.3187C20.67 38.2312 20.0412 37.0219 19.5838 35.6906C19.1264 34.3594 18.8977 32.9625 18.8977 31.5C18.8977 27.75 20.2317 24.5531 22.8998 21.9094C25.5678 19.2656 28.8076 17.9437 32.6191 17.9437H46.3976V31.5C46.3976 35.25 45.0541 38.4375 42.367 41.0625C39.6799 43.6875 36.4306 45 32.6191 45ZM32.6191 40.5C35.1728 40.5 37.3263 39.6187 39.0796 37.8562C40.8328 36.0937 41.7095 33.975 41.7095 31.5V22.5H32.6191C30.1035 22.5 27.95 23.3719 26.1586 25.1156C24.3672 26.8594 23.4715 28.9875 23.4715 31.5C23.4715 32.3625 23.5763 33.1781 23.7859 33.9469C23.9956 34.7156 24.31 35.4375 24.7293 36.1125L31.0183 29.925C31.4375 29.5125 31.9711 29.3062 32.6191 29.3062C33.267 29.3062 33.8006 29.5125 34.2199 29.925C34.6392 30.3375 34.8488 30.8625 34.8488 31.5C34.8488 32.1375 34.6392 32.6625 34.2199 33.075L27.9309 39.2625C28.617 39.675 29.3507 39.9844 30.1321 40.1906C30.9134 40.3969 31.7424 40.5 32.6191 40.5Z" fill="#65A565"/>
</svg>
