<svg width="185" height="186" viewBox="0 0 185 186" fill="none" xmlns="http://www.w3.org/2000/svg">
<mask id="path-1-inside-1_214_2870" fill="white">
<path fill-rule="evenodd" clip-rule="evenodd" d="M183 92.5C183 142.482 142.482 183 92.5 183C42.5182 183 2 142.482 2 92.5C2 42.5182 42.5182 2 92.5 2C142.482 2 183 42.5182 183 92.5ZM185 92.5C185 143.586 143.586 185 92.5 185C41.4137 185 0 143.586 0 92.5C0 41.4137 41.4137 0 92.5 0C143.586 0 185 41.4137 185 92.5ZM92.4616 98.2099C111.382 98.2099 126.721 82.3602 126.721 62.8086C126.721 43.2571 111.382 27.4074 92.4616 27.4074C73.5407 27.4074 58.2023 43.2571 58.2023 62.8086C58.2023 82.3602 73.5407 98.2099 92.4616 98.2099Z"/>
</mask>
<g filter="url(#filter0_i_214_2870)">
<path fill-rule="evenodd" clip-rule="evenodd" d="M183 92.5C183 142.482 142.482 183 92.5 183C42.5182 183 2 142.482 2 92.5C2 42.5182 42.5182 2 92.5 2C142.482 2 183 42.5182 183 92.5ZM185 92.5C185 143.586 143.586 185 92.5 185C41.4137 185 0 143.586 0 92.5C0 41.4137 41.4137 0 92.5 0C143.586 0 185 41.4137 185 92.5ZM92.4616 98.2099C111.382 98.2099 126.721 82.3602 126.721 62.8086C126.721 43.2571 111.382 27.4074 92.4616 27.4074C73.5407 27.4074 58.2023 43.2571 58.2023 62.8086C58.2023 82.3602 73.5407 98.2099 92.4616 98.2099Z" fill="#FCC9B9"/>
</g>
<path d="M92.5 185C143.586 185 185 143.586 185 92.5H181C181 141.377 141.377 181 92.5 181V185ZM0 92.5C0 143.586 41.4137 185 92.5 185V181C43.6228 181 4 141.377 4 92.5H0ZM92.5 0C41.4137 0 0 41.4137 0 92.5H4C4 43.6228 43.6228 4 92.5 4V0ZM185 92.5C185 41.4137 143.586 0 92.5 0V4C141.377 4 181 43.6228 181 92.5H185ZM92.5 187C144.691 187 187 144.691 187 92.5H183C183 142.482 142.482 183 92.5 183V187ZM-2 92.5C-2 144.691 40.3091 187 92.5 187V183C42.5182 183 2 142.482 2 92.5H-2ZM92.5 -2C40.3091 -2 -2 40.3091 -2 92.5H2C2 42.5182 42.5182 2 92.5 2V-2ZM187 92.5C187 40.3091 144.691 -2 92.5 -2V2C142.482 2 183 42.5182 183 92.5H187ZM124.721 62.8086C124.721 81.318 110.217 96.2099 92.4616 96.2099V100.21C112.548 100.21 128.721 83.4025 128.721 62.8086H124.721ZM92.4616 29.4074C110.217 29.4074 124.721 44.2993 124.721 62.8086H128.721C128.721 42.2148 112.548 25.4074 92.4616 25.4074V29.4074ZM60.2023 62.8086C60.2023 44.2993 74.7066 29.4074 92.4616 29.4074V25.4074C72.3748 25.4074 56.2023 42.2148 56.2023 62.8086H60.2023ZM92.4616 96.2099C74.7066 96.2099 60.2023 81.318 60.2023 62.8086H56.2023C56.2023 83.4025 72.3748 100.21 92.4616 100.21V96.2099Z" fill="#1E1E1E" mask="url(#path-1-inside-1_214_2870)"/>
<g filter="url(#filter1_i_214_2870)">
<path d="M93.2273 97.6973C134.041 97.6974 162.584 151.876 160.465 154.812C159.419 156.261 126.977 186.513 93.2273 184.941C47.7047 182.821 24.9434 154.812 24.9434 154.812C26.9959 143.162 52.4139 97.6971 93.2273 97.6973Z" fill="#D9D9D9"/>
</g>
<path d="M93.2273 97.6973C134.041 97.6974 162.584 151.876 160.465 154.812C159.419 156.261 126.977 186.513 93.2273 184.941C47.7047 182.821 24.9434 154.812 24.9434 154.812C26.9959 143.162 52.4139 97.6971 93.2273 97.6973Z" stroke="#1E1E1E"/>
<defs>
<filter id="filter0_i_214_2870" x="0" y="0" width="189" height="185" filterUnits="userSpaceOnUse" color-interpolation-filters="sRGB">
<feFlood flood-opacity="0" result="BackgroundImageFix"/>
<feBlend mode="normal" in="SourceGraphic" in2="BackgroundImageFix" result="shape"/>
<feColorMatrix in="SourceAlpha" type="matrix" values="0 0 0 0 0 0 0 0 0 0 0 0 0 0 0 0 0 0 127 0" result="hardAlpha"/>
<feOffset dx="6"/>
<feGaussianBlur stdDeviation="2"/>
<feComposite in2="hardAlpha" operator="arithmetic" k2="-1" k3="1"/>
<feColorMatrix type="matrix" values="0 0 0 0 0 0 0 0 0 0 0 0 0 0 0 0 0 0 0.25 0"/>
<feBlend mode="normal" in2="shape" result="effect1_innerShadow_214_2870"/>
</filter>
<filter id="filter1_i_214_2870" x="24.4111" y="97.1973" width="140.664" height="88.3037" filterUnits="userSpaceOnUse" color-interpolation-filters="sRGB">
<feFlood flood-opacity="0" result="BackgroundImageFix"/>
<feBlend mode="normal" in="SourceGraphic" in2="BackgroundImageFix" result="shape"/>
<feColorMatrix in="SourceAlpha" type="matrix" values="0 0 0 0 0 0 0 0 0 0 0 0 0 0 0 0 0 0 127 0" result="hardAlpha"/>
<feOffset dx="4"/>
<feGaussianBlur stdDeviation="2"/>
<feComposite in2="hardAlpha" operator="arithmetic" k2="-1" k3="1"/>
<feColorMatrix type="matrix" values="0 0 0 0 0 0 0 0 0 0 0 0 0 0 0 0 0 0 0.25 0"/>
<feBlend mode="normal" in2="shape" result="effect1_innerShadow_214_2870"/>
</filter>
</defs>
</svg>
