<svg width="34" height="33" viewBox="0 0 34 33" fill="none" xmlns="http://www.w3.org/2000/svg">
<path d="M23.7702 15.6316C24.2497 15.6316 24.6516 15.4651 24.976 15.1322C25.3004 14.7993 25.4626 14.3868 25.4626 13.8947C25.4626 13.4026 25.3004 12.9901 24.976 12.6572C24.6516 12.3243 24.2497 12.1579 23.7702 12.1579C23.2906 12.1579 22.8887 12.3243 22.5643 12.6572C22.2399 12.9901 22.0777 13.4026 22.0777 13.8947C22.0777 14.3868 22.2399 14.7993 22.5643 15.1322C22.8887 15.4651 23.2906 15.6316 23.7702 15.6316ZM10.2307 12.1579H18.6929V8.68421H10.2307V12.1579ZM4.30724 33C3.3482 29.7 2.40326 26.4072 1.47242 23.1217C0.541589 19.8362 0.0761719 16.4711 0.0761719 13.0263C0.0761719 10.3632 0.9788 8.10526 2.78406 6.25263C4.58931 4.4 6.78947 3.47368 9.38452 3.47368H17.8467C18.6647 2.37368 19.659 1.51974 20.8296 0.911842C22.0002 0.303947 23.2624 0 24.6164 0C25.3215 0 25.9209 0.253289 26.4146 0.759868C26.9082 1.26645 27.155 1.88158 27.155 2.60526C27.155 2.77895 27.1339 2.95263 27.0915 3.12632C27.0492 3.3 26.9999 3.45921 26.9435 3.60395C26.8306 3.92237 26.7248 4.24803 26.6261 4.58092C26.5274 4.91382 26.4498 5.25395 26.3934 5.60132L30.2437 9.55263H33.9247V21.6671L29.1436 23.2737L26.3088 33H17.0004V29.5263H13.6156V33H4.30724ZM6.84588 29.5263H10.2307V26.0526H20.3853V29.5263H23.7702L26.3934 20.5816L30.5399 19.1487V13.0263H28.8474L22.9239 6.94737C22.9239 6.36842 22.9592 5.81118 23.0297 5.27566C23.1002 4.74013 23.206 4.19737 23.347 3.64737C22.529 3.87895 21.8098 4.27697 21.1892 4.84145C20.5686 5.40592 20.1173 6.10789 19.8353 6.94737H9.38452C7.74851 6.94737 6.35226 7.54079 5.19576 8.72763C4.03927 9.91447 3.46103 11.3474 3.46103 13.0263C3.46103 15.8632 3.84182 18.6349 4.60341 21.3414C5.36501 24.048 6.1125 26.7763 6.84588 29.5263Z" fill="#F5ACAC"/>
</svg>
