<svg width="25" height="24" viewBox="0 0 25 24" fill="none" xmlns="http://www.w3.org/2000/svg">
<path d="M24.4262 12.2668C24.4262 11.2801 24.3462 10.5601 24.1729 9.81348H12.9062V14.2668H19.5195C19.3862 15.3735 18.6662 17.0401 17.0662 18.1601L17.0438 18.3092L20.6061 21.0688L20.8529 21.0935C23.1195 19.0001 24.4262 15.9201 24.4262 12.2668Z" fill="#4285F4"/>
<path d="M12.9056 23.9997C16.1455 23.9997 18.8655 22.933 20.8522 21.093L17.0655 18.1596C16.0522 18.8663 14.6922 19.3596 12.9056 19.3596C9.73226 19.3596 7.03895 17.2664 6.07886 14.373L5.93813 14.385L2.23399 17.2517L2.18555 17.3863C4.15886 21.3063 8.2122 23.9997 12.9056 23.9997Z" fill="#34A853"/>
<path d="M6.07953 14.3731C5.8262 13.6265 5.67959 12.8264 5.67959 11.9998C5.67959 11.1731 5.8262 10.3731 6.0662 9.62643L6.05949 9.46741L2.30893 6.55469L2.18622 6.61306C1.37292 8.23974 0.90625 10.0664 0.90625 11.9998C0.90625 13.9331 1.37292 15.7597 2.18622 17.3864L6.07953 14.3731Z" fill="#FBBC05"/>
<path d="M12.9056 4.63997C15.1589 4.63997 16.6788 5.6133 17.5455 6.42669L20.9322 3.12C18.8523 1.18667 16.1455 0 12.9056 0C8.2122 0 4.15886 2.69331 2.18555 6.61328L6.06553 9.62666C7.03895 6.73333 9.73226 4.63997 12.9056 4.63997Z" fill="#EB4335"/>
</svg>
